<?xml version="1.0" encoding="utf-8"?>
<!-- Generator: Adobe Illustrator 24.3.0, SVG Export Plug-In . SVG Version: 6.00 Build 0)  -->
<svg version="1.1" id="Layer_1" xmlns="http://www.w3.org/2000/svg" xmlns:xlink="http://www.w3.org/1999/xlink" x="0px" y="0px"
	 viewBox="0 0 150 124.5" style="enable-background:new 0 0 150 124.5;" xml:space="preserve">
<style type="text/css">
	.st0{fill:#CC9E63;}
</style>
<g>
	<g>
		<g>
			<path class="st0" d="M88,71.9c0,1.1,0.1,1.9,0.3,2.4s0.5,0.9,0.8,1c0.3,0.2,0.9,0.3,1.6,0.4c0.9,0.2,1.7,0.4,2.3,0.6l0,1.2H78.5
				c0-0.1,0-0.3,0-0.5s0-0.4,0-0.7c0.4-0.2,0.8-0.3,1.2-0.4c0.3-0.1,0.8-0.2,1.2-0.3c0.7-0.1,1.2-0.3,1.5-0.5s0.5-0.5,0.7-1.1
				c0.2-0.5,0.2-1.4,0.2-2.6V54.3c0-1.1-0.1-1.9-0.3-2.4s-0.4-0.9-0.8-1.1c-0.3-0.2-0.8-0.4-1.5-0.5c-0.3-0.1-0.7-0.2-1.1-0.3
				c-0.4-0.1-0.8-0.3-1.1-0.4l0-1.2h14.5l0,1.2c-0.7,0.3-1.4,0.5-2.3,0.7c-0.7,0.2-1.2,0.3-1.6,0.5c-0.3,0.2-0.6,0.5-0.8,1.1
				c-0.2,0.5-0.3,1.4-0.3,2.5v7.3h16.1v-7.5c0-1-0.1-1.8-0.3-2.3s-0.4-0.8-0.7-1c-0.3-0.2-0.8-0.4-1.5-0.5c-0.8-0.2-1.5-0.5-2.1-0.7
				l0-1.2h14.1l0,1.2c-0.7,0.2-1.3,0.4-1.9,0.6c-0.8,0.2-1.4,0.4-1.8,0.7c-0.4,0.2-0.6,0.6-0.8,1.2s-0.3,1.4-0.3,2.6v17.1
				c0,1.2,0.1,2.1,0.2,2.6c0.2,0.6,0.4,0.9,0.8,1.1c0.3,0.2,0.9,0.4,1.7,0.5c0.9,0.2,1.6,0.4,2.1,0.6v1.2H99.5l0-1.2
				c0.4-0.2,0.7-0.4,1-0.4c0.3-0.1,0.7-0.2,1.2-0.3c0.6-0.1,1-0.2,1.3-0.4c0.3-0.2,0.5-0.5,0.7-1c0.2-0.5,0.3-1.3,0.3-2.3v-8.4H88
				V71.9z"/>
		</g>
	</g>
	<g>
		<path class="st0" d="M58.3,41.9c-0.3,0-0.6,0-1,0s-0.6-0.1-0.8-0.1c-0.6-0.1-1.1-0.1-1.6-0.1H34.4l-0.1-1l17.8-25.2l1.7-2.5h-9.3
			c-1.1,0-2,0-2.6,0.1c-0.6,0.1-1.2,0.3-1.8,0.7c-0.6,0.4-1.1,1-1.5,1.8l-0.5,0.9c-0.5,0.9-0.9,1.7-1.4,2.4c-0.4,0-0.8,0-1.2-0.1
			l0.6-7.7h0.8l23.1,0c0.2,0.1,0.3,0.3,0.3,0.7l0,0.6L42.8,37.1l-0.4,0.6c-0.7,0.9-1.1,1.6-1.3,1.9c0.8,0.2,1.5,0.3,2.1,0.3h3.2
			c1.4,0,2.7,0,3.8-0.1c1.1-0.1,2.2-0.2,3.2-0.3c0.9-0.1,1.6-0.4,2-0.8c0.5-0.4,0.9-1,1.4-1.8c0.9-1.7,1.7-2.9,2.5-3.7l1.3,0
			L59.3,42L58.3,41.9L58.3,41.9z"/>
	</g>
	<polygon class="st0" points="72.8,46.3 70,46.3 70,43 68.9,43 68.9,46.3 66.2,46.3 66.2,47.4 68.9,47.4 68.9,52.7 70,52.7 70,47.4 
		72.8,47.4 	"/>
	<g>
		<path class="st0" d="M60,109.5c-0.5,0.1-1,0.1-1.5,0.2c-1.2,0.2-2.5,0.3-3.7,0.5c-0.6,0.1-1.2,0.4-1.8,0.6
			c-1.4,0.5-2.6,1.3-3.7,2.2c1.4,0.7,2.7,1.4,4.1,2c1.5,0.7,3,1.1,4.7,1.1c0.5,0,0.9-0.1,1.3-0.2c0-0.6,0-1.1,0-1.6
			c0-0.5,0-0.9,0.1-1.4c-2.1,1.4-4.3,1.9-6.7,1.3c-0.8-0.2-1.6-0.7-2.4-1.1c-0.1-0.1-0.2-0.3-0.2-0.5c0.2,0,0.3,0,0.5,0
			c0.3,0.1,0.6,0.2,0.8,0.3c2.1,0.8,4.3,1.1,6.5,0.1c0.7-0.3,1.3-0.8,1.8-1.3c0.4-0.5,0.5-1.2,0.8-1.8
			C60.4,109.8,60.2,109.6,60,109.5z"/>
		<path class="st0" d="M61.1,115.6c0.4-2.2,1.5-3.9,2.9-5.4c-0.7,0-1.3,0.2-1.9,0.1c-1.1-0.1-1.1-0.2-1.5,0.9c0,0.1-0.1,0.2-0.1,0.2
			c-0.1,1.1-0.2,2.2-0.2,3.4c0,0.3,0,0.6,0,1c1.5,0.6,2.1,0.6,3.1,0.2C62.6,115.9,61.8,115.8,61.1,115.6z"/>
		<path class="st0" d="M60,109.5c-0.5,0.1-1,0.1-1.5,0.2c-1.2,0.2-2.5,0.3-3.7,0.5c-0.6,0.1-1.2,0.4-1.8,0.6
			c-1.4,0.5-2.6,1.3-3.7,2.2c1.4,0.7,2.7,1.4,4.1,2c1.5,0.7,3,1.1,4.7,1.1c0.5,0,0.9-0.1,1.3-0.2c0-0.6,0-1.1,0-1.6
			c0-0.5,0-0.9,0.1-1.4c-2.1,1.4-4.3,1.9-6.7,1.3c-0.8-0.2-1.6-0.7-2.4-1.1c-0.1-0.1-0.2-0.3-0.2-0.5c0.2,0,0.3,0,0.5,0
			c0.3,0.1,0.6,0.2,0.8,0.3c2.1,0.8,4.3,1.1,6.5,0.1c0.7-0.3,1.3-0.8,1.8-1.3c0.4-0.5,0.5-1.2,0.8-1.8
			C60.4,109.8,60.2,109.6,60,109.5z"/>
		<path class="st0" d="M61.1,115.6c0.4-2.2,1.5-3.9,2.9-5.4c-0.7,0-1.3,0.2-1.9,0.1c-1.1-0.1-1.1-0.2-1.5,0.9c0,0.1-0.1,0.2-0.1,0.2
			c-0.1,1.1-0.2,2.2-0.2,3.4c0,0.3,0,0.6,0,1c1.5,0.6,2.1,0.6,3.1,0.2C62.6,115.9,61.8,115.8,61.1,115.6z"/>
		<path class="st0" d="M60,109.5c-0.5,0.1-1,0.1-1.5,0.2c-1.2,0.2-2.5,0.3-3.7,0.5c-0.6,0.1-1.2,0.4-1.8,0.6
			c-1.4,0.5-2.6,1.3-3.7,2.2c1.4,0.7,2.7,1.4,4.1,2c1.5,0.7,3,1.1,4.7,1.1c0.5,0,0.9-0.1,1.3-0.2c0-0.6,0-1.1,0-1.6
			c0-0.5,0-0.9,0.1-1.4c-2.1,1.4-4.3,1.9-6.7,1.3c-0.8-0.2-1.6-0.7-2.4-1.1c-0.1-0.1-0.2-0.3-0.2-0.5c0.2,0,0.3,0,0.5,0
			c0.3,0.1,0.6,0.2,0.8,0.3c2.1,0.8,4.3,1.1,6.5,0.1c0.7-0.3,1.3-0.8,1.8-1.3c0.4-0.5,0.5-1.2,0.8-1.8
			C60.4,109.8,60.2,109.6,60,109.5z"/>
		<path class="st0" d="M61.1,115.6c0.4-2.2,1.5-3.9,2.9-5.4c-0.7,0-1.3,0.2-1.9,0.1c-1.1-0.1-1.1-0.2-1.5,0.9c0,0.1-0.1,0.2-0.1,0.2
			c-0.1,1.1-0.2,2.2-0.2,3.4c0,0.3,0,0.6,0,1c1.5,0.6,2.1,0.6,3.1,0.2C62.6,115.9,61.8,115.8,61.1,115.6z"/>
		<path class="st0" d="M73.3,101.9c-0.1,0.6-0.3,1.1-0.4,1.7c-0.2,0.9-0.4,1.8-0.6,2.7c0.1,0,0.1,0,0.2,0.1c0.5-1.8,2.1-2.4,3.7-2.9
			c-0.3-0.2-0.4-0.3-0.6-0.4c-0.6-0.4-1.1-0.8-1.7-1.3C73.6,101.5,73.4,101.5,73.3,101.9z"/>
		<path class="st0" d="M78.6,102.3c0.8-0.5,1-0.4,1.1,0.5c0.3-0.4,0.6-0.7,1-1.2c-1-0.2-1.9-0.3-2.9-0.4c0.1,0.3,0.2,0.5,0.4,0.7
			C78.3,102,78.4,102.2,78.6,102.3z"/>
		<path class="st0" d="M77.7,107.7c0-0.1,0-0.1,0-0.2c0.1-0.9,0.2-1.8,0.6-2.7c0.2-0.5,0.3-1.1,0.5-1.6c-0.1,0-0.1-0.1-0.2-0.1
			c-0.2,0-0.3,0.1-0.4,0.1c-0.9,0.3-1.8,0.6-2.6,1c-0.8,0.4-1.8,0.6-2.2,1.5c-0.2,0.4-0.5,1-0.4,1.4c0.4,1.1,1.2,1.9,2.4,2.2
			C76.6,109.7,77.8,109.5,77.7,107.7z"/>
		<path class="st0" d="M80.7,111.2c0.3-0.5,0.6-0.9,0.9-1.4c0.5-1,0.8-2.2,0.9-3.3c0.1-1.4,0.2-2.7,0.3-4.1c0-0.4-0.2-0.8-0.3-1.1
			c-0.1,0-0.2,0-0.2,0c-0.8,0.8-1.5,1.7-2.2,2.5c-0.8,0.8-0.8,1.8-0.9,2.9c-0.1,0.8,0.2,1.7-0.4,2.5c-0.4,0.5-0.8,1-1.3,1.5
			c0.9,0.3,1.8,0.6,2.8,0.9C80.4,111.5,80.6,111.4,80.7,111.2z"/>
		<path class="st0" d="M61.7,109.4c0.7,0.1,1.4,0,2.2,0.1c0.2,0,0.4,0.1,0.8,0.2c0-0.1,0-0.2,0-0.4c-0.1-0.4-0.2-0.7-0.3-1.1
			c0-0.1-0.2-0.2-0.2-0.3c-0.1-0.2-0.2-0.5-0.2-0.7c0.2-0.4,0.5-0.7,0.8-1c0.2-0.2,0.4-0.4,0.4-0.6c0.4-1.2,1-2.2,2.1-2.9
			c0.7-0.4,1.4-0.8,2.1-1.2c-0.7-0.3-1.5-0.6-2.4-0.6c-1.2,0.1-2.4,0.2-3.4,0.2c-0.4,1-0.8,2-1.2,3c-0.6,1.3-1,2.7-1.2,4.2
			C61,109,61.1,109.3,61.7,109.4z"/>
		<path class="st0" d="M71.8,101.5c0.4,0.3,0.4,0.3,0.6-0.2c0.5-1,1.2-1.1,2.1-0.4c0.6-1.1,1.4-0.8,2.2-0.4c0.2,0.1,0.5,0.2,0.7,0.1
			c1.2-0.3,2.4-0.4,3.5,0.3c0.3,0.2,0.4,0.1,0.7,0c1.1-0.7,1.6-0.5,2,0.8c0,0.2,0.1,0.3,0.1,0.5c0.2-0.3,0.4-0.6,0.6-0.8
			c0.1-0.1,0-0.3-0.1-0.4c-1.2-1.1-2.3-2.2-3.5-3.2c-0.8-0.7-1.7-1.3-2.8-1.2c-1.1,0.1-2.2,0.3-3.2,0.5c-0.9,0.2-1.8,0.3-2.7,0.5
			c-0.5,0.1-1.1,0.1-1.4,0.3c-0.5,0.5-0.9,1.2-1.3,1.8c0.5,0.3,0.9,0.6,1.3,0.9C71,101,71.4,101.2,71.8,101.5z"/>
		<path class="st0" d="M87.7,101.2c-0.1-0.1-0.3-0.2-0.5-0.2c-0.5-0.1-1-0.1-1.5-0.2c-0.5-0.1-0.7,0.2-0.8,0.5
			c-0.1,0.3-0.1,0.6-0.1,0.9c1.8,0.2,2.9,1.5,4.2,2.6C88.9,103.8,88.2,101.7,87.7,101.2z"/>
		<path class="st0" d="M74.7,101.1c0.7,0.8,1.3,1.4,1.9,2.2c0.4-0.2,0.8-0.3,1.4-0.6c-0.9-0.6-1.8-1.2-2.6-1.7
			C75.3,100.9,75,101.1,74.7,101.1z"/>
		<path class="st0" d="M66.5,109.3c0.3,0.3,0.8,0.6,1.2,0.9c1.7,1.1,3.3,2.2,5.4,2.4c1.5,0.1,2.6-0.5,3.6-1.2
			c-0.2-0.5-0.5-0.5-0.9-0.5c-1.2-0.1-2.1-0.9-3-1.6c-0.8-0.6-1.6-1.2-2.5-1.6c-0.8-0.4-1.8-0.7-2.7-0.8c-0.9-0.1-1.8,0.1-2.7,0.7
			C65.5,108.2,65.9,108.8,66.5,109.3z"/>
		<path class="st0" d="M72,102.7c0.1-0.4-0.1-0.4-0.4-0.4c-0.1,0-0.2,0-0.3,0c-1.1,0.1-2.2-0.1-3.2,0.7c-0.4,0.3-0.8,0.6-1.1,0.9
			c-0.4,0.5-0.8,1.1-1.2,1.7c2.1-0.5,3.8,0.4,5.5,1.1C71.5,105.4,71.7,104,72,102.7z"/>
		<path class="st0" d="M86.2,112.5c-0.2,0-0.4,0-0.5,0c-1.3,0.4-2.6,0.8-3.8,1.3c-0.2,0.1-0.4,0.2-0.4,0.3c-0.1,0.4-0.2,0.8-0.2,1.2
			c-0.2,0.7-0.4,1.2-1,1.6c-0.9,0.5-1.8,0.4-2.8,0.1c-0.5-0.1-0.9-0.1-1.3,0.1c-0.7,0.3-1.5,0.8-2.3,0.2c-0.3-0.2-0.6-0.3-0.9-0.5
			c-0.9-0.4-1.9-0.6-2.8-0.7c-0.2,0.6-0.3,1.2-0.5,1.7c-0.1,0.3,0.1,0.5,0.3,0.6c0.3,0.1,0.7,0.2,1,0.3c1.6,0.6,3.1,1.3,4.7,1.8
			c1.8,0.6,3.7,0.4,5.4-0.3c1.8-0.8,3.7-1.7,4.7-3.6c0.5-0.9,1.2-1.8,0.8-2.9C86.4,113.4,86.4,113,86.2,112.5z"/>
		<path class="st0" d="M91.8,110c-0.6-0.7-1.5-0.8-2.3-0.9c-0.1,0-0.2,0.1-0.2,0.2c-0.5,0.6-0.9,1.2-1.4,1.8
			c0.9,0.3,1.8,0.5,2.6,0.8c1.1,0.4,2.1,1,2.8,1.9c0.1,0.1,0,0.4-0.1,0.5c-0.1,0.1-0.3,0.1-0.5,0c-0.1,0-0.2-0.2-0.3-0.3
			c-0.6-0.4-1.1-0.9-1.7-1.3c-0.9-0.4-1.9-0.7-2.8-1.1c-0.2-0.1-0.4,0-0.5,0c0.3,0.7,0.6,1.3,0.8,2c0.2,0.8-0.4,1.3-0.5,2.1
			c0.2,0,0.3,0,0.5,0c1.5,0,2.9,0,4.4,0c1.2,0,2.3-0.3,3.4-1.1c-0.5-0.8-0.9-1.6-1.5-2.2C93.4,111.6,92.6,110.8,91.8,110z"/>
		<path class="st0" d="M88.1,109.4c0.4-0.7,0.8-1.4,1.2-2.2c0.2-0.2,0.3-0.5,0.5-0.6c-0.9-0.7-1.9-1.4-2.9-2.1
			c-0.9-0.7-1.9-1.1-3.1-1.2c-0.1,0.9-0.1,1.8-0.2,2.7c-0.2,1.6-0.5,3.3-1.4,4.7c-0.6,1-1.3,2-2.8,1.8c0.7,0.4,1.4,0.3,2.2,0.2
			c1.4-0.1,2.7-0.5,3.9-1.2C86.5,110.9,87.5,110.4,88.1,109.4z"/>
		<path class="st0" d="M66.8,117.2c0.5-0.3,0.9-0.7,1.4-1.1c0-0.1,0-0.1,0-0.2c-0.8,0-1.7,0-2.5,0c-0.5,0-0.9,0.2-1.1,0.6
			c-1.1,1.4-1.8,3.1-2.3,4.7c-0.3,1-0.5,2.1-0.8,3.2c0,0,0.1,0,0.2,0.1c0.2-0.3,0.4-0.6,0.5-0.9c0.6-1.1,1-2.2,1.7-3.2
			C64.5,119.2,65.5,118.1,66.8,117.2z"/>
		<path class="st0" d="M69.2,116.1c-0.1,0-0.1-0.1-0.2-0.1c-2.3,2.6-4.8,4.9-6.7,8.1c2.3-1,5.8-3.9,6.4-5.1
			c-0.1-0.3-0.2-0.6-0.1-0.8C68.8,117.5,69,116.8,69.2,116.1z"/>
		<path class="st0" d="M75,117.1c1-0.9,2.1-1.8,3-2.7c0.8-0.9,0.8-1.2-0.1-2.1c-0.2-0.2-0.5-0.4-0.8-0.7c-0.1,0.1-0.2,0.1-0.3,0.2
			c-0.2,0.1-0.3,0.2-0.5,0.3c-1.7,1.1-3.6,1.5-5.6,0.9c-2.2-0.7-4.3-1.4-5.8-3.2c-1.4,1.4-2.1,3.1-2.8,5c1.3,0,2.6,0,3.8,0
			c0.9,0,1.9-0.1,2.8,0c1.2,0.1,2.3,0.3,3.5,0.6C73.3,115.7,74.2,116.1,75,117.1z"/>
		<path class="st0" d="M79.6,116.2c0.2,0,0.5-0.3,0.6-0.5c0.2-0.6,0.4-1.2,0.6-1.8c-0.3-0.1-0.6-0.1-1-0.2c-0.2,1.1-1.2,1.7-2,2.5
			C78.4,116.2,79,116.2,79.6,116.2z"/>
	</g>
	<path class="st0" d="M149.7,56c-0.4-0.5-1-0.7-1.6-0.3c-0.3,0.2-0.6,0.4-0.9,0.7c-1.3-0.5-2.5,0.2-3.8,0.4c0.2-0.3,0.4-0.7,0.7-1
		c0.7-1,1.5-2,2.2-2.9c0.2-0.3,0.4-0.4,0.7-0.3c0.7,0.2,1.6-0.2,1.7-0.9c0.2-0.6,0.2-1.3,0.2-1.9c-0.1-0.8-1.3-1.2-1.9-0.7
		c-0.9,0.7-1.2,1.5-1.1,2.6c0,0.1,0,0.3,0,0.3c-0.6,0.7-1.2,1.3-1.7,2c-0.9,1.1-1.8,2.3-2.7,3.5c-0.2,0.2-0.4,0.5-0.6,0.8
		c0-0.3-0.1-0.4-0.1-0.5c0.1-1.2,0.2-2.5,0.3-3.7c0.1-1.2,0.1-2.3,0.1-3.5c0-1.3,0-2.5-0.1-3.8c-0.1-1.6-0.2-3.2-0.3-4.7
		c0-0.5-0.1-0.9-0.1-1.4c-0.1-1-0.1-2-0.2-3c-0.1-1-0.3-1.9-0.4-2.9c-0.2-1.5-0.4-2.9-0.8-4.4c-0.2-0.9-0.5-1.9-0.9-2.8
		c-0.5-1.5-1.1-2.9-1.7-4.4c-0.6-1.4-1.2-2.9-1.9-4.2c-0.7-1.5-1.5-3-2.3-4.5c-0.4-0.8-0.4-1.4,0.3-2.1c0.1-0.1,0.3-0.1,0.4-0.1
		c1,0.5,2.4,0.2,2.9-1.2c0.3-0.8-0.1-1.6-0.6-2.1c-0.5-0.4-1.6-0.4-2,0c-0.5,0.6-1.2,1.1-1.1,2c0,0.1-0.1,0.3-0.2,0.4
		c-0.3,0.3-0.6,0.6-0.9,0.9c-0.1-0.1-0.2-0.2-0.2-0.3c-0.4-1-0.9-2.1-1.1-3.1c-0.2-0.9-0.1-1.8-0.1-2.7c0-0.3,0.2-0.6,0.6-0.6
		c1.2-0.1,2.2-1.4,1.8-2.5c-0.2-0.4-0.6-0.8-1-1.1c-0.6-0.5-1.3-0.5-1.9,0c-0.6,0.5-0.9,1.5-0.6,2.1c0.3,0.5,0.4,0.9,0.1,1.4
		c-0.1,0.2-0.1,0.4-0.1,0.6c0,0.3,0,0.7,0,1c0,0-0.1,0-0.1,0c-0.3-0.5-0.5-1-0.8-1.5c-0.1,0-0.1,0.1-0.2,0.1c-0.2,1,0.3,1.9,0.5,2.9
		c-0.2-0.1-0.4-0.2-0.5-0.3c-0.9-0.6-1.7-1.3-2.6-1.8c-0.5-0.3-0.9-0.7-1.2-1.1c-0.3-0.3-0.6-0.6-1-0.8c-0.4-0.2-0.8-0.2-1.2,0.1
		c-0.4,0.3-0.6,0.8-0.4,1.3c0.3,1.2,1.5,1.3,2.4,1.1c0.4-0.1,0.6-0.1,0.9,0.1c1.1,1,2.2,2,3.5,2.8c1.6,1.1,2.2,2.9,3.1,4.5
		c0.8,1.4,1.4,3,2,4.5c1,2.3,2,4.7,2.9,7c0.4,1,0.7,2.1,0.9,3.1c0.3,1.1,0.6,2.2,0.8,3.3c0.2,0.8,0.2,1.5,0.3,2.3
		c0.1,0.5,0.1,1,0.1,1.5c-1.6-2.5-3.1-5-4.6-7.5c0.4-0.2,0.7-0.3,0.9-0.5c0.8-0.7,0.8-1.9-0.1-2.7c-0.8-0.8-1.8-0.5-2.3,0
		c-0.6,0.6-0.6,1.9,0.1,2.4c0.8,0.5,1.1,1,1.2,2c0.1,1.1,0.7,2.2,1.1,3.3c-0.5-0.3-1-0.6-1.4-0.9c-0.1,0-0.1-0.2-0.1-0.3
		c0-0.9-0.7-1.4-1.3-2c-0.6-0.5-1.4-0.6-1.9-0.2c-0.5,0.4-0.7,1.2-0.4,1.9c0.7,1.5,2,1.9,3.3,1c0.4,0.3,0.9,0.6,1.3,1
		c0.8,0.6,1.7,1.2,2.2,2.1c0.4,0.7,0.7,1.4,1,2.2c0.6,1.4,1.4,2.8,1.4,4.5c0,1.9,0.2,3.8,0.3,5.8c0,0.8,0,1.6,0,2.4
		c0,1.2,0,2.5,0,3.7c0,0.8-0.1,1.6-0.2,2.4c-0.1,0.9-0.1,1.9-0.3,2.8c-0.2,1.2-0.5,2.4-0.7,3.7c-0.2,0.9-0.3,1.8-0.5,2.6
		c-0.4,1.2-0.8,2.4-1.2,3.7c-0.4,1.1-0.7,2.1-1.1,3.2c-0.4,1-0.8,1.9-1.1,2.8c-0.3,0.7-0.5,1.4-0.8,2.1c-0.3,0.7-0.7,1.3-1.1,1.9
		c-0.2,0.4-0.5,0.8-0.8,1.3c0,0-0.1,0-0.1-0.1c0.1-0.5,0.3-1,0.3-1.5c0.1-0.5,0.1-1.1,0.2-1.6c0.1-0.5,0-1,0.7-1.3
		c0.2-0.1,0.3-0.4,0.3-0.7c0.1-0.4,0.1-0.9,0.1-1.3c-0.2-1.4-1.4-2.1-2.6-1.4c-1.1,0.6-1.2,2.6-0.2,3.2c0.7,0.5,0.5,1,0.5,1.6
		c0,0.2,0,0.4,0,0.6c-0.1,0.6-0.2,1.1-0.2,1.7c-0.3-0.5-0.5-1.1-0.8-1.6c-0.1-0.2-0.4-0.3-0.6-0.4c-0.1,0.3-0.3,0.6-0.3,0.8
		c0.1,0.7,0.2,1.3,0.4,1.9c0.3,1,0.4,1.9,0,3c-0.6,1.8-1.6,3.2-2.7,4.6c-1,1.2-2,2.4-3.1,3.5c-0.5,0.6-1.1,1.1-1.7,1.6
		c-0.8,0.7-1.6,1.4-2.4,2.1c-0.5,0.4-0.9,0.9-1.4,1.3c-0.5,0.5-1.1,0.9-1.7,1.3c-0.8,0.6-1.5,1.2-2.3,1.8c-0.4,0.3-0.9,0.6-1.4,0.9
		c-0.3,0.2-0.7,0.4-1.1,0.7c0-0.2,0-0.2,0-0.3c0.3-0.9,0.8-1.8,1-2.8c0.5-1.8,1-3.6,0.9-5.4c-0.1-2,0.1-4.1-0.3-6.1
		c0-0.1,0-0.3,0.1-0.3c0.8-0.7,0.7-1.6,0.4-2.5c-0.4-1.3-1.8-1.3-2.6-0.7c-0.7,0.6-0.6,1.3-0.5,2c0.1,0.6,0.3,1,0.9,1.2
		c0.4,0.1,0.7,0.2,1.1,0.3c0.4,2.2-0.6,9-1.3,9.7c-0.2-0.7-0.3-1.3-0.5-1.9c0-0.2-0.1-0.4,0-0.4c0.7-0.7,0.6-1.5,0.1-2.3
		c-0.2-0.3-0.2-0.6-0.7-0.5c-0.3,0.1-0.7-0.1-1,0.1c-0.6,0.3-0.7,0.8-0.6,1.5c0.1,0.7,0.5,1.1,1.1,1.3c0.4,0.1,0.5,0.4,0.6,0.8
		c0,0.6,0.1,1.2,0.1,1.9c0.1,1.6,0.2,3.2-0.8,4.6c-0.1,0.2-0.1,0.4-0.2,0.6c-0.3,0.5-0.5,1.1-0.9,1.4c-0.4,0.4-1.1,0.7-1.6,1
		c-0.7,0.4-1.5,0.8-2.2,1.2c-1,0.5-2,1-2.9,1.5c-2.1,1.1-4.2,2.2-6.2,3.3c-0.1-0.1-0.2-0.2-0.3-0.2c0.1,0.1,0.4,0.4,0.6,0.7
		c-0.1-0.1-0.1-0.2-0.2-0.3c0.2,0,0.4-0.1,0.7-0.2c1.6-0.4,3.2-0.6,4.7-1.2c1.2-0.4,2.6-0.6,3.7-1.4c0.6-0.4,1.3-0.5,1.9-0.8
		c0.8-0.4,1.7-0.8,2.5-1.2c0.8-0.5,1.6-1,2.5-1.5c1-0.6,2-1.2,3-1.8c1.3-0.9,2.5-1.8,3.8-2.7c0.8-0.6,1.6-1.3,2.4-2
		c0.3-0.3,0.6-0.6,0.9-0.9c0.8-0.8,1.6-1.7,2.4-2.5c1-1,2-2,2.9-3.1c0.6-0.7,1.2-1.5,1.7-2.2c0.7-1,1.5-2,2.2-3
		c0.6-0.9,1.1-1.9,1.7-2.8c0.4-0.6,0.9-1.2,1.2-1.9c0.8-1.8,1.9-3.3,3.7-4.2c0.4-0.2,0.7-0.4,1-0.6c0.8-0.5,1.6-1.1,2.4-1.6
		c0.1-0.1,0.3-0.2,0.4-0.2c0.3,0.3,0.5,0.5,0.8,0.7c0.8,0.6,1.8,0.5,2.4-0.2c0.6-0.6,0.6-1.4,0.8-2.2c0-0.1,0-0.1,0-0.2
		c-0.5-1-2.3-1.3-3.1-0.5c-0.7,0.8-1.6,0.9-2.6,1.3c0.2-0.8,0.5-1.5,0.6-2.1c0.1-0.2-0.1-0.4-0.1-0.6c-0.2,0.1-0.4,0.2-0.5,0.4
		c-0.6,1-1.1,2.1-1.8,3.1c-0.4,0.7-1,1.3-1.5,1.9c-0.1,0-0.1-0.1-0.2-0.1c0.2-0.4,0.4-0.8,0.5-1.2c0.3-0.8,0.5-1.6,0.8-2.3
		c0.1-0.3,0.3-0.6,0.4-0.8c0.3-0.9,0.6-1.9,0.9-2.8c0.4-1.2,0.9-2.4,1.1-3.7c0.3-1.5,0.7-3,1.4-4.4c0.6-1,1-2.1,1.6-3.2
		c0.1-0.2,0.3-0.5,0.5-0.5c1.3-0.3,2.6-0.6,3.9-0.8c0,0.1,0,0.1,0,0.2c0.2,0.3,0.4,0.7,0.7,1c0.7,0.6,1.7,0.3,2.3-0.7
		C150.1,56.9,150.1,56.4,149.7,56z"/>
	<path class="st0" d="M123.9,105.7c-1.6-0.6-3.3-0.9-5.1-0.8c-0.7,0.1-1.3,0.1-2,0.2c0,0,0-0.1,0-0.1c-0.8,0.2-1.7,0.3-2.5,0.5
		c-2,0.5-4.1,0.8-5.9,1.8c-0.8,0.4-1.6,0.9-2.4,1.4c-0.3,0.2-0.4,0.6-0.2,0.9c0.2,0.2,0.5,0.5,0.8,0.6c1.2,0.7,2.5,1,3.8,1
		c1.3,0,2.7,0,4,0c2,0,3.8-0.7,5.5-1.6c0.9-0.5,1.8-1.1,2.6-1.7c0.5-0.3,1-0.7,1.5-1.1C124.5,106.4,124.4,105.9,123.9,105.7z"/>
	<path class="st0" d="M117.5,95c0.1-0.2,0.3-0.3,0.4-0.6c0.5-1.3,1.1-2.6,1.4-3.9c0.9-3.7,0.8-7.4-0.1-11c-0.2-0.7-0.4-1.3-0.7-2
		c-0.3,0.2-0.5,0.3-0.7,0.5c-1.8,1.4-2.7,3.4-3.1,5.6c-0.3,1.8-0.5,3.7-0.6,5.5c-0.1,2.2,0.7,4.3,2.1,6
		C116.6,95.5,117.2,95.5,117.5,95z"/>
	<path class="st0" d="M132.3,93.9c-1.3,0-2.6-0.1-3.8,0.3c-1.3,0.5-2.7,1-3.9,1.6c-0.9,0.4-1.8,1.1-2.6,1.7c-1.1,0.9-2,1.9-3,2.8
		c-0.1,0.1-0.1,0.5,0,0.7c0.2,0.2,0.5,0.3,0.7,0.3c0.2,0.1,0.4-0.1,0.6,0c1.5,0.7,3.1,1.1,4.8,1.1c1.8-0.1,3.5-0.5,4.9-1.5
		c1.7-1.2,3.2-2.6,4.8-3.8c0.7-0.6,1.4-1.1,2-1.7c0.3-0.2,0.5-0.4,0.9-0.6c-0.2-0.1-0.3-0.2-0.4-0.2C135.7,94.2,134,94,132.3,93.9z"
		/>
	<path class="st0" d="M32.3,93.5c0.3,0.5,1,0.5,1.3,0.1c0.6-0.9,1.3-1.9,1.7-2.9c0.6-1.4,0.6-3,0.5-4.5c-0.1-1.3-0.3-2.6-0.5-3.9
		c-0.3-1.7-0.9-3.3-2-4.7c-0.5-0.6-1.1-1.1-1.7-1.7c-0.2,0.3-0.4,0.5-0.5,0.7c-0.7,2.1-1.1,4.2-1.1,6.4c0,2.6,0.1,5.2,1.1,7.6
		C31.4,91.7,31.8,92.6,32.3,93.5z"/>
	<path class="st0" d="M43.8,107.2c-0.3-0.3-0.7-0.4-1.1-0.7c-1.6-1-3.4-1.6-5.2-2c-1.7-0.4-3.3-0.9-5.1-1c-1.2,0-2.5-0.2-3.7,0
		c-0.9,0.2-1.8,0.4-2.7,0.7c-0.2,0.1-0.5,0.4-0.4,0.5c0.1,0.3,0.4,0.6,0.6,0.8c0.5,0.4,1,0.8,1.6,1.1c1.2,0.7,2.4,1.5,3.6,2.1
		c1.8,0.9,3.8,1,6,1.1c0.8-0.1,1.8-0.1,2.9-0.2c1.2-0.2,2.5-0.4,3.5-1.4C44.2,107.8,44.3,107.6,43.8,107.2z"/>
	<path class="st0" d="M28.9,100.1c0.3-0.1,0.8-0.4,1-0.3c0.5,0.2,0.6,0,0.9-0.3c0.2-0.3,0.1-0.5-0.1-0.8c-0.5-0.5-1.1-1-1.6-1.5
		c-0.6-0.6-1.2-1.2-1.9-1.7c-0.9-0.6-1.9-1.2-2.9-1.7c-1.2-0.5-2.4-1.1-3.7-1.3c-1.3-0.2-2.7-0.2-4.1-0.1c-1.4,0.1-2.9,0.4-4.3,0.7
		c0,0.1,0,0.2-0.1,0.2c0.3,0.2,0.6,0.4,0.9,0.7c1.3,1.1,2.5,2.2,3.8,3.2c1.5,1.3,3.1,2.5,5,3.2c1.3,0.5,2.7,0.6,4,0.5
		C26.9,100.9,27.9,100.4,28.9,100.1z"/>
	<path class="st0" d="M104.7,103.5c0.1,0.2,0.3,0.2,0.5,0.3c0.1-0.2,0.2-0.3,0.3-0.4c0.2-0.6,0.4-1.2,0.6-1.8c0.4-1.3,1-2.5,1.4-3.8
		c0.6-2.2,0.8-4.4,0.8-6.6c0-1.5-0.1-3-0.3-4.5c-0.2-1.2-0.7-2.4-1.1-3.6c-0.1-0.2-0.4-0.5-0.5-0.4c-0.2,0.1-0.4,0.3-0.5,0.6
		c-0.3,0.6-0.5,1.2-0.7,1.8c-0.6,1.6-1.4,3.1-1.8,4.7c-0.5,1.9-0.6,3.8-0.8,5.6c0.2,1.1,0.3,2.1,0.5,3.1
		C103,100.3,103.8,102,104.7,103.5z"/>
	<path class="st0" d="M143.5,77.9c-0.4,0.1-0.9,0.2-1.3,0.3c-1.3,0.4-2.6,0.7-3.7,1.2c-0.9,0.4-1.7,1.1-2.5,1.7
		c-1.5,1.1-2.7,2.4-3.8,3.9c-1,1.4-1.6,2.9-2.4,4.4c-0.1,0.2-0.2,0.5-0.3,0.8c0.8,0.2,0.9,0.1,1.4-0.6c0.1-0.1,0.2-0.3,0.4-0.3
		c1-0.3,2-0.5,2.9-0.9c1-0.4,2-0.9,2.9-1.5c0.9-0.6,1.8-1.2,2.5-1.9c1.3-1.3,2.5-2.8,3.4-4.5c0.4-0.7,0.7-1.3,1-2.1
		C144.2,78,144.1,77.8,143.5,77.9z"/>
	<path class="st0" d="M41.8,91.4c0.1,0.8,0.1,1.6,0.2,2.4c0.3,1.4,0.6,2.8,1,4.2c0.3,1.3,1.2,2.5,1.4,3.8c0,0.2,0.2,0.4,0.3,0.6
		c0.2-0.2,0.4-0.3,0.5-0.5c0.4-0.8,0.8-1.5,1.1-2.3c0.8-1.8,1.2-3.8,1.1-5.7c0-1.5-0.2-3-0.5-4.5c-0.3-1.7-1-3.3-1.7-4.9
		c-0.4-0.9-0.8-1.8-1.2-2.7c-0.1-0.2-0.3-0.4-0.5-0.5c-0.1,0-0.4,0.2-0.5,0.4c-0.3,0.8-0.7,1.5-0.9,2.3c-0.3,1.5-0.5,3.1-0.6,4.6
		c-0.1,0.9,0,1.8,0,2.7l0,0C41.7,91.3,41.8,91.3,41.8,91.4z"/>
	<path class="st0" d="M17.1,87.5c0.4,0.2,0.8,0.2,1.3,0.3c0.3,0,0.4,0.1,0.6,0.4c0.2,0.5,0.6,0.8,1.4,0.6c-0.3-0.7-0.7-1.3-1-2
		c-0.6-1.8-1.8-3.3-3-4.8c-0.7-0.9-1.6-1.6-2.5-2.3c-0.8-0.7-1.6-1.4-2.6-1.8c-1.4-0.6-3-0.9-4.5-1.4c-0.3-0.1-0.7,0-1,0
		c0.1,0.4,0.1,0.8,0.3,1.1c0.6,1.1,1.2,2.2,2,3.3c0.7,1,1.4,1.9,2.3,2.7c0.9,0.8,1.9,1.4,2.9,2.1C14.4,86.6,15.8,87,17.1,87.5z"/>
	<path class="st0" d="M124.8,69.4c-0.2,0-0.4,0.2-0.5,0.4c-1.1,2.1-2.1,4.2-2.5,6.5c-0.3,1.6-0.5,3.2-0.3,4.8
		c0.1,0.8,0.3,1.6,0.5,2.3c0.4,1.7,0.9,3.3,2.1,4.7c0.3,0.3,0.7,0.6,1.2,1c0.2-0.4,0.2-0.7,0.4-0.9c1-1.6,1.4-3.3,1.7-5.2
		c0.2-1.5,0.2-3,0.2-4.5c0-1-0.2-1.9-0.3-2.9c-0.2-1-0.5-1.9-0.8-2.9c-0.3-1-0.6-1.9-1-2.9C125.3,69.6,125,69.4,124.8,69.4z"/>
	<path class="st0" d="M24.5,87.5c1.1-0.4,1.7-1.3,2.1-2.2c1-1.8,1.4-3.8,1.6-5.8c0.3-2.2-0.1-4.4-0.8-6.5c-0.2-0.7-0.4-1.3-0.7-1.9
		c-0.5-1-0.9-2-1.4-3c-0.2-0.4-0.7-0.3-0.9,0c-0.1,0.2-0.2,0.4-0.3,0.6c-0.4,1-0.7,2-1.1,3.1c-0.2,0.5-0.3,1.1-0.4,1.6
		c-0.1,1-0.3,2.1-0.4,3.1c-0.1,1-0.1,2-0.1,3c0,1.6,0.3,3.2,0.9,4.7C23.6,85.3,24.1,86.4,24.5,87.5z"/>
	<path class="st0" d="M133.8,60.7c-0.3-1.3-0.6-2.6-1.5-3.7c-0.5-0.6-1-0.6-1.3,0.2c-0.5,1.4-1,2.8-1.5,4.3
		c-0.5,1.5-0.6,3.1-0.1,4.6c0.6,2,1.4,3.9,3,5.3c0.8,0.7,1.1,0.6,1.4-0.3c0-0.1,0.1-0.2,0.1-0.3c0.5-1.5,0.6-3,0.6-4.5
		c-0.1-1.1-0.2-2.1-0.3-3.5C134.1,62.2,133.9,61.4,133.8,60.7z"/>
	<path class="st0" d="M17,70.1c0.4-0.3,0.8-0.6,1.1-1c1.4-1.9,2.4-4.1,2.6-6.9c-0.1-0.5-0.2-1.4-0.4-2.2c-0.1-0.5-0.3-1.1-0.5-1.6
		c-0.3-1-0.7-1.9-1-2.8c-0.2-0.6-0.7-0.6-1.1-0.2c-0.7,0.8-1.1,1.8-1.3,2.9c-0.3,1.4-0.6,2.8-0.8,4.2c-0.1,0.9-0.2,1.8-0.2,2.7
		c0,1.6,0.2,3.1,0.8,4.6C16.3,70.2,16.6,70.4,17,70.1z"/>
	<path class="st0" d="M137.9,52.8c0-2-1-3.5-2.4-4.8c-1.1-1.1-2.4-1.8-3.8-2.5c-0.3-0.2-0.8-0.2-1.2-0.3c0,0.4-0.1,0.8-0.1,1.1
		c0.4,2.6,1.3,4.9,3.3,6.8c0.8,0.7,1.6,1.3,2.4,1.3C137.5,54.4,137.9,53.9,137.9,52.8z"/>
	<path class="st0" d="M138,41.8c0-0.1,0-0.2,0-0.3c-0.5-1.2-1-2.5-1.9-3.5c-1.9-1.8-3.9-3.4-6.4-4.3c-0.5-0.2-0.9,0-0.9,0.6
		c0,0.6,0,1.2,0.1,1.8c0.1,1.7,0.8,3.2,2.1,4.2c1.9,1.6,4.1,2.2,6.6,2C137.9,42.3,138.1,42.2,138,41.8z"/>
	<path class="st0" d="M149.2,62.6c-1-0.3-1.9-0.5-2.9-0.7c0,0,0,0.1,0,0.1c-1.6-0.1-2.9,0.5-4,1.5c-1,1-1.9,2.1-2.5,3.4
		c-0.4,0.9-0.7,1.8-1,2.7c-0.1,0.2,0,0.5,0.3,0.4c1-0.4,2-0.7,2.8-1.2c1.8-1,3.5-2.1,5.2-3.3c0.8-0.5,1.5-1.2,2.3-1.9
		C149.9,63.2,149.8,62.8,149.2,62.6z"/>
	<path class="st0" d="M11,68.7c0-0.3,0.1-0.5,0-0.6c-0.5-1.3-0.9-2.8-1.8-3.9c-0.5-0.7-1-1.3-1.6-1.9C6.9,61.5,6,60.9,5,60.7
		c-1.5-0.3-2.9-0.1-4.3,0.4c-0.7,0.3-0.7,0.6-0.2,1.1c0.6,0.6,1.3,1.2,2,1.7c1.5,1,2.9,2,4.4,2.8C8.2,67.4,9.5,68,11,68.7z"/>
	<path class="st0" d="M17.5,49.7c1.1-1.6,1.6-3.5,1.8-5.4c0-0.2,0-0.5-0.2-0.6c-0.1-0.1-0.4,0-0.6,0.1c-0.8,0.4-1.6,0.8-2.3,1.3
		c-2.3,1.5-4.1,3.2-4.3,6.1c-0.1,1,0.1,1.7,1.3,1.7c0.1,0,0.2,0,0.3,0c0.1,0,0.1,0,0.2-0.1C15.6,52.4,16.6,51.1,17.5,49.7z"/>
	<path class="st0" d="M21,33.2c0-0.2,0-0.4,0-0.6c0-0.4-0.4-0.7-0.7-0.5c-1,0.4-1.9,0.8-2.8,1.4c-1.1,0.7-2,1.5-3,2.3
		c-1.4,1.1-2,2.6-2.7,4.2c-0.1,0.2-0.2,0.7,0.2,0.8c0.4,0.1,0.9,0.2,1.4,0.1c1.4-0.2,2.8-0.4,4-1.1c1.5-0.8,2.6-1.9,3.1-3.5
		c0.3-1,0.4-2,0.6-3.1C21.1,33.2,21.1,33.2,21,33.2z"/>
	<path class="st0" d="M141.5,49.1c0,0.3,0,0.7,0,1c0,0.4,0.4,0.6,0.7,0.4c0.5-0.4,1-0.7,1.4-1.2c1.5-1.8,2.6-3.8,3.3-6
		c0.4-1.3,0.6-2.6,0.5-3.9c0-0.6-0.3-0.8-0.8-0.4c-0.9,0.8-1.9,1.6-2.7,2.5C142.2,43.8,141.7,46.4,141.5,49.1z"/>
	<path class="st0" d="M4.7,45.6c0.7,1.3,1.5,2.5,2.8,3.2C7.7,49,7.9,49,8,49c0.1-0.1,0.2-0.3,0.2-0.5c0-0.3,0-0.6,0-0.9
		c-0.1-2-0.5-3.8-1.2-5.6c-0.8-2-2.3-3.3-3.9-4.5c-0.4-0.3-0.6-0.1-0.7,0.3c-0.1,1.2,0,2.4,0.3,3.5C3.3,42.8,3.9,44.2,4.7,45.6z"/>
	<path class="st0" d="M133.2,23.4c0.1,0,0.4,0.1,0.4,0c0.1-0.1,0.2-0.4,0.1-0.5c-0.4-0.8-0.8-1.6-1.4-2.3c-0.7-0.7-1.6-1.4-2.4-1.9
		c-1.2-0.7-2.5-1.3-3.8-1.9c-0.4-0.2-0.7,0-0.7,0.5c0.1,0.3,0.1,0.6,0.2,1c0.3,1.7,1,3.1,2.6,3.9c0.9,0.5,2,0.7,3.1,1
		C131.9,23.3,132.6,23.3,133.2,23.4z"/>
	<path class="st0" d="M140.9,35.4c0.2-0.2,0.4-0.3,0.6-0.5c0,0,0.1,0,0.1-0.1c0.4-0.5,0.8-1,1.1-1.5c1-2,1.4-4.2,1.4-6.7
		c0-0.3-0.1-0.8-0.1-1.3c-0.1-0.5-0.7-0.7-1-0.3c-0.2,0.3-0.5,0.5-0.8,0.9c-1,1.4-1.5,3-1.9,4.6c-0.3,1.4-0.4,2.7,0.1,4.1
		C140.6,34.8,140.8,35.1,140.9,35.4z"/>
	<path class="st0" d="M6.8,31c0.4,1.1,1.1,1.9,1.8,2.7C8.8,34,9,33.9,9.1,33.6c0.2-0.5,0.3-1,0.5-1.5C9.9,31,9.7,30,9.5,28.9
		C9,27,8.4,25,7,23.5c-0.2-0.2-0.5-0.4-0.8-0.3c-0.2,0.1-0.3,0.4-0.3,0.5c-0.1,1-0.1,1.9-0.2,2.7c0.1,0.8,0.2,1.4,0.4,2
		C6.3,29.4,6.5,30.2,6.8,31z"/>
	<path class="st0" d="M23.3,19c0.5-0.8,0.7-1.6,0.8-2.5c0-0.4,0-0.8,0-1.1c-0.4,0.1-0.7,0-1.1,0.2c-1.7,0.7-3.2,1.7-4.7,2.7
		c-1.2,0.8-1.8,2-2.3,3.2c-0.1,0.1,0,0.4,0.1,0.5c0.1,0.1,0.3,0,0.4,0c0.2,0,0.4-0.1,0.6-0.1c0,0,0,0.1,0,0.1
		c0.8-0.1,1.6-0.3,2.4-0.5C21.1,21.1,22.4,20.4,23.3,19z"/>
	<path class="st0" d="M137.1,22.7c0.1,0.2,0.4,0.6,0.5,0.5c0.3-0.1,0.6-0.4,0.7-0.6c0.3-1,0.6-2.1,0.9-3.2c0.3-1.5,0-3-0.4-4.5
		c-0.3-1-0.5-1.1-1.3-0.3c-1.1,1-1.5,2.3-1.5,3.1C136,19.9,136.4,21.3,137.1,22.7z"/>
	<path class="st0" d="M12.1,21.7c0.1,0,0.4-0.3,0.5-0.5c1-1.8,1.4-3.7,0.9-5.7c-0.3-1.3-1-2.3-2.2-3c-0.1,0.2-0.3,0.4-0.4,0.7
		c-0.2,1.1-0.4,2.1-0.5,3.2c-0.2,1.7,0.4,3.2,0.9,4.8C11.6,21.4,11.9,21.6,12.1,21.7z"/>
	<path class="st0" d="M52.6,109.3c-0.2,0.2-0.5,0.3-0.5,0.3c0.1-0.1,0.2-0.1,0.3-0.2C52.5,109.4,52.6,109.4,52.6,109.3z"/>
	<path class="st0" d="M54.2,108.6c-0.4,0.1-0.7,0-1.1-0.2c-1.4-0.7-2.8-1.4-4.2-2.2c-0.6-0.3-1.2-0.7-1.8-1
		c-0.6-0.3-1.2-0.5-1.8-0.8c-0.8-0.4-1.5-0.9-2.3-1.3c-0.8-0.4-1.6-0.8-1.9-1.7c-0.4-1.1-1.2-2.1-1.2-3.4c-0.1-1.5,0-3,0.1-4.5
		c0-0.2,0.1-0.4,0.3-0.4c1-0.2,1.4-0.8,1.5-1.8l0,0c-0.3-1.2-1.1-1.3-2.1-1.1c-0.1,0.3-0.3,0.6-0.4,0.9c-0.2,0.4-0.3,0.9,0,1.3
		c0.4,0.5,0.4,0.9,0.2,1.5c-0.2,0.5-0.3,1.1-0.4,1.8c-1.1-3.3-1.4-6.7-1.3-10.1c0.2,0,0.4-0.1,0.5-0.1c1-0.2,1.6-0.6,1.5-1.8
		c0-0.2,0-0.3,0-0.5c0.1-0.6-0.4-1-0.8-1.2c-0.5-0.2-1-0.4-1.6,0c-1,0.7-1.2,2.4-0.4,3.3c0.2,0.2,0.2,0.4,0.2,0.6
		c-0.1,0.8-0.3,1.5-0.3,2.3c0,2.6-0.3,5.1,0.5,7.6c0.2,0.5,0.2,1.1,0.4,1.6c0.3,0.9,0.7,1.8,1,2.8c0,0-0.1,0.1-0.1,0.1
		c-0.1-0.1-0.2-0.1-0.3-0.2c-0.4-0.3-0.8-0.6-1.2-0.9c-0.8-0.5-1.5-0.9-2.3-1.5c-0.8-0.6-1.6-1.3-2.4-2c-0.4-0.4-0.9-0.7-1.3-1.1
		c-0.6-0.5-1.1-1.2-1.7-1.6c-1.2-0.9-2.3-1.9-3.3-3.1c-1.1-1.2-2.2-2.5-3.2-3.8c-0.5-0.6-1-1.3-1.3-2c-0.4-0.8-0.6-1.6-0.8-2.4
		c-0.1-0.3-0.1-0.6,0-0.8c0.2-1.1,0.5-2.2,0.7-3.3c0-0.2-0.2-0.5-0.3-0.8c-0.2,0.2-0.5,0.2-0.6,0.4c-0.3,0.6-0.5,1.1-0.7,1.7
		c-0.2-0.9-0.3-1.9-0.4-2.8c-0.1-0.5-0.1-1,0.6-1.2c0.1,0,0.2-0.2,0.2-0.3c0.6-0.8,0.5-1.7,0.1-2.5c-0.3-0.5-0.7-0.7-1.2-0.7
		c-0.6,0-1.2,0-1.5,0.6c-0.3,0.5-0.6,1-0.5,1.6c0.1,0.6,0,1.4,0.9,1.6c0.1,0,0.2,0.3,0.2,0.4c0.1,0.7,0.1,1.4,0.2,2.1
		c0.1,0.6,0.2,1.2,0.3,1.7c0,0-0.1,0-0.2,0.1c-0.6-1.1-1.3-2.2-1.9-3.4C16.3,75,16,74,15.6,73c-0.1-0.3-0.2-0.7-0.3-1
		c-0.3-0.8-0.7-1.6-1-2.4c-0.4-1-0.7-2.1-1-3.2c-0.4-1.2-0.8-2.4-1.1-3.7c-0.3-1-0.4-2-0.6-3c-0.1-0.6-0.3-1.3-0.3-1.9
		c-0.1-0.7-0.1-1.3-0.1-2c-0.1-1.1-0.3-2.2-0.3-3.2c0-1.4,0-2.7,0.1-4.1c0-1.4,0-2.8,0-4.3c0.1-1.5,0.2-3,0.3-4.4
		c0-0.1,0-0.2,0.1-0.3c0.6-1.3,1.1-2.7,1.7-4c0.3-0.7,0.7-1.4,1.2-1.9c0.9-0.9,1.9-1.6,2.9-2.4c0.9,0.9,2.5,0.7,3.1-0.6
		c0.4-0.8,0.4-1.5-0.1-2c-0.4-0.5-1.2-0.5-1.9,0c-0.7,0.5-1.4,1-1.4,2c0,0.1,0,0.2-0.1,0.3c-0.6,0.3-1.1,0.6-1.7,1
		c0.1-0.3,0.3-0.6,0.4-0.9c0.5-1,1-2.1,0.9-3.2c0-0.4,0.1-0.6,0.5-0.8c1.1-0.4,1.5-1.7,0.9-2.6c-0.4-0.5-1.2-0.8-1.8-0.6
		c-0.7,0.2-1.4,1.1-1.4,1.8c0,0.7,0.3,1.4,1.1,1.5c0.1,0,0.2,0.1,0.4,0.2c-1.6,2.5-3.1,5-4.6,7.5c0-0.1,0-0.2,0-0.3
		c0.2-1.5,0.4-2.9,0.7-4.4c0.1-0.7,0.2-1.3,0.4-2c0.5-1.5,1-3.1,1.6-4.6c0.4-1.2,0.9-2.5,1.4-3.7c0.4-0.9,0.8-1.8,1.2-2.7
		c0.5-1.2,1-2.4,1.6-3.5c0.4-0.8,0.8-1.6,1.3-2.5c0.4-0.8,0.8-1.6,1.5-2.1c0.5-0.4,1-0.8,1.5-1.2c0.9-0.7,1.7-1.4,2.6-2.2
		c0.1-0.1,0.4-0.2,0.5-0.2c0.5,0.3,0.9,0.2,1.4,0.2c1,0,1.6-1.2,1.2-2c-0.3-0.6-0.9-0.8-1.5-0.5c-0.4,0.2-0.7,0.5-1,0.8
		c-0.3,0.2-0.4,0.6-0.7,0.8c-0.7,0.6-1.5,1-2.2,1.5c-0.5,0.3-1,0.7-1.5,1.1c0.3-1.1,0.8-2,0.4-3c-0.3,0.5-0.5,1.1-0.8,1.6
		C21,4.9,21,4.2,20.8,3.5c-0.1-0.3-0.2-0.4,0-0.7c0.6-0.7,0.4-1.4,0-2.1c-0.4-0.6-1-0.9-1.6-0.7c-0.8,0.2-1.4,0.7-1.6,1.5
		C17.1,2.6,18.1,4,19.3,4c0.6,0,0.6,0.3,0.6,0.6c0,0.6,0,1.2,0,1.8c-0.1,1.6-0.6,3-1.5,4.3c-0.3-0.4-0.6-0.7-0.9-1
		c-0.1-0.1-0.2-0.4-0.1-0.6c0.1-0.4-0.1-0.7-0.3-0.9c-0.1-0.1-0.2-0.3-0.3-0.4c-0.3-0.7-1.1-1-1.9-0.8c-1.3,0.4-1.7,1.8-0.8,3
		c0.6,0.8,1.6,1,2.8,0.4c0.8,0.7,1,1.4,0.5,2.3c-0.1,0.1-0.2,0.2-0.3,0.4c-0.6,1.3-1.2,2.6-1.8,3.8c-1.1,2.4-2.3,4.7-3.1,7.1
		c-0.6,1.9-1.5,3.7-1.7,5.7c-0.2,1.3-0.5,2.6-0.7,3.9c-0.2,1.2-0.2,2.4-0.4,3.6c0,0.3-0.1,0.7-0.1,1.1c-0.1,1-0.1,2-0.1,3
		c0,0.7-0.1,1.4-0.2,2c-0.1,0.7-0.2,1.5-0.2,2.2c0,0.9,0.1,1.9,0,2.8c-0.1,1-0.1,1.9,0,2.8c0.1,1.8,0.2,3.5,0.3,5.3
		c-0.6-0.8-1.2-1.7-1.8-2.5c-1-1.3-2.1-2.5-3.1-3.7C4,50.3,4,50.2,4,50c0.1-0.8-0.1-1.5-0.6-2.1c-0.4-0.4-0.8-0.8-1.4-0.6
		c-0.7,0.2-1.1,0.5-1.1,1.3c0,0.3,0,0.6,0.1,0.9c0.2,0.9,0.8,1.6,2,1.4c0.2,0,0.4,0.1,0.5,0.2c0.2,0.2,0.2,0.4,0.4,0.6
		c0.9,1.2,1.8,2.3,2.7,3.5c-1.9-0.5-2.8-0.8-4-0.4c-0.7-0.8-1.4-1-2-0.7C0,54.4-0.3,55-0.1,55.5C0.1,56.4,1,57,1.6,57
		s1.2-0.7,1.3-1.5c1.2,0.2,2.3,0.5,3.5,0.7c0.5,0.1,0.8,0.4,1,0.8c0.4,0.8,0.8,1.7,1.2,2.5c0.6,1.2,1.3,2.3,1.5,3.7
		c0.2,1.3,0.6,2.7,1,4c0.4,1.4,1,2.8,1.5,4.3c0.4,1.1,0.8,2.2,1.2,3.3c0.1,0.2,0.1,0.4,0.1,0.6c0,0-0.1,0-0.1,0.1
		c-0.5-0.7-1.1-1.5-1.6-2.2c-0.5-0.8-0.9-1.6-1.4-2.4c-0.2-0.3-0.3-0.9-1.1-0.8c0.3,0.9,0.5,1.8,0.8,2.8c-0.4-0.1-0.6-0.2-0.9-0.3
		c-0.6-0.3-1.4-0.4-1.8-1.1c-0.2-0.4-0.7-0.7-1.2-0.5c-0.5,0.2-0.9,0.4-1.4,0.7c-0.2,0.1-0.4,0.4-0.4,0.5c0.1,0.8,0.2,1.8,0.9,2.4
		c0.2,0.1,0.3,0.4,0.5,0.4c0.7,0,1.4-0.1,2-0.6c0.2-0.2,0.3-0.4,0.5-0.6c0.7,0.5,1.4,0.9,2.1,1.4c0.7,0.4,1.5,0.8,2.2,1.3
		c0.8,0.6,1.6,1.2,2.2,2c0.7,1,1.2,2.1,1.9,3.2c0.9,1.6,1.8,3.1,2.8,4.7c0.7,1.1,1.6,2.2,2.4,3.2c0.5,0.6,1,1.1,1.5,1.7
		c0.5,0.6,0.9,1.2,1.5,1.8c0.8,0.8,1.6,1.5,2.4,2.3c0.4,0.4,0.7,0.8,1.1,1.2c0.4,0.4,1,0.7,1.4,1.1c0.5,0.4,1,0.9,1.5,1.3
		c1.2,0.9,2.5,1.8,3.7,2.7c0.2,0.1,0.3,0.2,0.5,0.3c0.3,0.1,0.5,0.2,0.8,0.4c0.1,0.1,0.2,0.3,0.3,0.3c1.2,0.5,2.1,1.4,3.2,1.9
		c0.8,0.4,1.6,0.9,2.4,1.3c1.2,0.6,2.4,1.2,3.7,1.7c0.3,0.1,0.7,0.2,1,0.3c0.9,0.3,1.8,0.6,2.7,0.8c0.9,0.3,1.8,0.5,2.7,0.8
		c-0.1,0.1-0.1,0.1-0.2,0.2c0.3-0.2,0.6-0.4,0.8-0.4C53.7,108.8,53.9,108.7,54.2,108.6z"/>
</g>
</svg>
