<?xml version="1.0" encoding="utf-8"?>
<!-- Generator: Adobe Illustrator 24.3.0, SVG Export Plug-In . SVG Version: 6.00 Build 0)  -->
<svg version="1.1" id="Layer_1" xmlns="http://www.w3.org/2000/svg" xmlns:xlink="http://www.w3.org/1999/xlink" x="0px" y="0px"
	 viewBox="0 0 150 124.54" style="enable-background:new 0 0 150 124.54;" xml:space="preserve">
<style type="text/css">
	.st0{fill:#FFFFFF;}
</style>
<g>
	<g>
		<g>
			<path class="st0" d="M88,71.87c0,1.11,0.1,1.93,0.29,2.45s0.46,0.87,0.8,1.03c0.34,0.16,0.86,0.31,1.56,0.45
				c0.9,0.15,1.68,0.36,2.34,0.63l-0.04,1.17H78.46c-0.01-0.12-0.03-0.28-0.04-0.47c-0.01-0.19-0.02-0.43-0.02-0.7
				c0.42-0.18,0.81-0.31,1.16-0.4c0.35-0.09,0.76-0.19,1.23-0.29c0.67-0.14,1.16-0.29,1.46-0.47s0.53-0.54,0.68-1.07
				c0.16-0.53,0.24-1.38,0.24-2.55V54.26c0-1.09-0.09-1.91-0.27-2.44c-0.18-0.53-0.43-0.89-0.76-1.08
				c-0.33-0.19-0.84-0.37-1.53-0.55c-0.31-0.07-0.67-0.17-1.06-0.29c-0.39-0.12-0.76-0.26-1.12-0.43l0.04-1.15h14.46l0.04,1.17
				c-0.67,0.3-1.45,0.54-2.34,0.72c-0.7,0.15-1.23,0.32-1.56,0.51c-0.34,0.19-0.6,0.55-0.79,1.09C88.09,52.35,88,53.18,88,54.28
				v7.31h16.05v-7.53c0-1.02-0.09-1.78-0.27-2.27c-0.18-0.49-0.43-0.84-0.74-1.02c-0.31-0.19-0.8-0.37-1.46-0.55
				c-0.81-0.21-1.51-0.46-2.09-0.74l0.04-1.15h14.1l0.04,1.17c-0.66,0.22-1.3,0.41-1.91,0.56c-0.82,0.23-1.42,0.44-1.78,0.65
				c-0.36,0.21-0.63,0.59-0.82,1.15c-0.19,0.56-0.28,1.42-0.28,2.59V71.6c0,1.2,0.08,2.07,0.25,2.62c0.16,0.55,0.41,0.91,0.75,1.1
				c0.34,0.19,0.9,0.36,1.68,0.53c0.87,0.19,1.57,0.39,2.11,0.58v1.17H99.53l-0.04-1.17c0.37-0.21,0.72-0.36,1.02-0.45
				c0.31-0.09,0.72-0.19,1.25-0.29c0.6-0.1,1.04-0.24,1.34-0.4c0.29-0.16,0.52-0.5,0.7-1c0.17-0.5,0.26-1.29,0.26-2.35v-8.39H88
				V71.87z"/>
		</g>
	</g>
	<g>
		<path class="st0" d="M58.29,41.94c-0.28,0-0.6-0.02-0.96-0.05c-0.36-0.03-0.62-0.06-0.77-0.07c-0.59-0.08-1.14-0.12-1.64-0.12
			H34.4l-0.09-1.01l17.78-25.17l1.73-2.48h-9.26c-1.09,0-1.96,0.04-2.6,0.13c-0.64,0.08-1.25,0.32-1.82,0.7
			c-0.58,0.38-1.09,0.99-1.54,1.81l-0.49,0.91c-0.48,0.94-0.94,1.72-1.38,2.36c-0.41,0-0.82-0.02-1.24-0.07l0.63-7.67h0.75
			l23.07,0.02c0.2,0.08,0.3,0.31,0.3,0.7l-0.02,0.63L42.78,37.08l-0.44,0.63c-0.66,0.92-1.08,1.56-1.29,1.92
			c0.75,0.24,1.45,0.35,2.11,0.35h3.25c1.42,0,2.68-0.03,3.79-0.08c1.11-0.06,2.18-0.17,3.23-0.34c0.89-0.14,1.57-0.4,2.05-0.77
			c0.47-0.37,0.94-0.98,1.39-1.82c0.89-1.65,1.72-2.87,2.48-3.65l1.31,0.05l-1.4,8.59H58.29z"/>
	</g>
	<polygon class="st0" points="72.76,46.29 70.01,46.29 70.01,43.04 68.92,43.04 68.92,46.29 66.17,46.29 66.17,47.38 68.92,47.38 
		68.92,52.72 70.01,52.72 70.01,47.38 72.76,47.38 	"/>
	<g>
		<path class="st0" d="M60.05,109.47c-0.55,0.06-1.01,0.09-1.48,0.15c-1.22,0.16-2.45,0.29-3.65,0.51
			c-0.63,0.11-1.24,0.36-1.85,0.59c-1.36,0.53-2.57,1.29-3.7,2.23c1.39,0.69,2.74,1.36,4.09,2.03c1.48,0.73,3.05,1.06,4.69,1.11
			c0.46,0.01,0.93-0.12,1.29-0.17c0-0.61-0.01-1.08,0-1.56c0.01-0.47,0.04-0.94,0.06-1.44c-2.07,1.42-4.31,1.91-6.7,1.29
			c-0.84-0.22-1.61-0.7-2.39-1.1c-0.13-0.07-0.17-0.31-0.25-0.48c0.17,0,0.35-0.04,0.5,0.01c0.29,0.09,0.56,0.25,0.85,0.35
			c2.14,0.82,4.31,1.05,6.47,0.13c0.66-0.28,1.3-0.76,1.75-1.31c0.4-0.49,0.53-1.2,0.79-1.83C60.36,109.81,60.17,109.6,60.05,109.47
			z"/>
		<path class="st0" d="M61.06,115.64c0.36-2.23,1.46-3.92,2.88-5.39c-0.65,0.04-1.29,0.16-1.91,0.09c-1.09-0.11-1.09-0.16-1.48,0.89
			c-0.03,0.08-0.08,0.17-0.09,0.25c-0.08,1.12-0.15,2.24-0.22,3.36c-0.02,0.32,0,0.64,0,1c1.5,0.6,2.06,0.64,3.09,0.18
			C62.58,115.89,61.8,115.76,61.06,115.64z"/>
		<path class="st0" d="M60.05,109.47c-0.55,0.06-1.01,0.09-1.48,0.15c-1.22,0.16-2.45,0.29-3.65,0.51
			c-0.63,0.11-1.24,0.36-1.85,0.59c-1.36,0.53-2.57,1.29-3.7,2.23c1.39,0.69,2.74,1.36,4.09,2.03c1.48,0.73,3.05,1.06,4.69,1.11
			c0.46,0.01,0.93-0.12,1.29-0.17c0-0.61-0.01-1.08,0-1.56c0.01-0.47,0.04-0.94,0.06-1.44c-2.07,1.42-4.31,1.91-6.7,1.29
			c-0.84-0.22-1.61-0.7-2.39-1.1c-0.13-0.07-0.17-0.31-0.25-0.48c0.17,0,0.35-0.04,0.5,0.01c0.29,0.09,0.56,0.25,0.85,0.35
			c2.14,0.82,4.31,1.05,6.47,0.13c0.66-0.28,1.3-0.76,1.75-1.31c0.4-0.49,0.53-1.2,0.79-1.83C60.36,109.81,60.17,109.6,60.05,109.47
			z"/>
		<path class="st0" d="M61.06,115.64c0.36-2.23,1.46-3.92,2.88-5.39c-0.65,0.04-1.29,0.16-1.91,0.09c-1.09-0.11-1.09-0.16-1.48,0.89
			c-0.03,0.08-0.08,0.17-0.09,0.25c-0.08,1.12-0.15,2.24-0.22,3.36c-0.02,0.32,0,0.64,0,1c1.5,0.6,2.06,0.64,3.09,0.18
			C62.58,115.89,61.8,115.76,61.06,115.64z"/>
		<path class="st0" d="M60.05,109.47c-0.55,0.06-1.01,0.09-1.48,0.15c-1.22,0.16-2.45,0.29-3.65,0.51
			c-0.63,0.11-1.24,0.36-1.85,0.59c-1.36,0.53-2.57,1.29-3.7,2.23c1.39,0.69,2.74,1.36,4.09,2.03c1.48,0.73,3.05,1.06,4.69,1.11
			c0.46,0.01,0.93-0.12,1.29-0.17c0-0.61-0.01-1.08,0-1.56c0.01-0.47,0.04-0.94,0.06-1.44c-2.07,1.42-4.31,1.91-6.7,1.29
			c-0.84-0.22-1.61-0.7-2.39-1.1c-0.13-0.07-0.17-0.31-0.25-0.48c0.17,0,0.35-0.04,0.5,0.01c0.29,0.09,0.56,0.25,0.85,0.35
			c2.14,0.82,4.31,1.05,6.47,0.13c0.66-0.28,1.3-0.76,1.75-1.31c0.4-0.49,0.53-1.2,0.79-1.83C60.36,109.81,60.17,109.6,60.05,109.47
			z"/>
		<path class="st0" d="M61.06,115.64c0.36-2.23,1.46-3.92,2.88-5.39c-0.65,0.04-1.29,0.16-1.91,0.09c-1.09-0.11-1.09-0.16-1.48,0.89
			c-0.03,0.08-0.08,0.17-0.09,0.25c-0.08,1.12-0.15,2.24-0.22,3.36c-0.02,0.32,0,0.64,0,1c1.5,0.6,2.06,0.64,3.09,0.18
			C62.58,115.89,61.8,115.76,61.06,115.64z"/>
		<path class="st0" d="M73.32,101.9c-0.12,0.56-0.28,1.12-0.4,1.68c-0.2,0.9-0.37,1.81-0.56,2.72c0.05,0.02,0.11,0.04,0.16,0.06
			c0.54-1.79,2.05-2.4,3.65-2.94c-0.26-0.17-0.44-0.29-0.61-0.41c-0.57-0.42-1.14-0.83-1.69-1.27
			C73.57,101.5,73.41,101.49,73.32,101.9z"/>
		<path class="st0" d="M78.56,102.32c0.75-0.46,0.96-0.38,1.08,0.49c0.31-0.37,0.6-0.72,1.01-1.19c-1.03-0.15-1.95-0.29-2.87-0.43
			c0.12,0.31,0.25,0.48,0.38,0.65C78.3,102,78.43,102.16,78.56,102.32z"/>
		<path class="st0" d="M77.73,107.72c0-0.05,0-0.11,0-0.16c0.05-0.93,0.18-1.83,0.64-2.68c0.25-0.47,0.31-1.05,0.46-1.57
			c-0.06-0.03-0.11-0.06-0.17-0.09c-0.15,0.04-0.29,0.08-0.44,0.13c-0.88,0.33-1.77,0.63-2.62,1.01c-0.83,0.37-1.78,0.62-2.22,1.54
			c-0.21,0.43-0.51,1.02-0.37,1.38c0.43,1.08,1.19,1.93,2.42,2.17C76.59,109.67,77.81,109.46,77.73,107.72z"/>
		<path class="st0" d="M80.7,111.24c0.32-0.46,0.62-0.94,0.88-1.43c0.54-1.04,0.82-2.16,0.89-3.33c0.09-1.37,0.23-2.74,0.29-4.11
			c0.02-0.37-0.19-0.76-0.3-1.13c-0.07-0.01-0.15-0.02-0.22-0.03c-0.75,0.83-1.47,1.69-2.25,2.49c-0.79,0.82-0.83,1.84-0.92,2.87
			c-0.08,0.83,0.17,1.73-0.37,2.48c-0.37,0.52-0.81,0.99-1.26,1.53c0.89,0.28,1.85,0.6,2.81,0.87
			C80.38,111.49,80.62,111.36,80.7,111.24z"/>
		<path class="st0" d="M61.7,109.4c0.71,0.09,1.44,0.04,2.16,0.07c0.22,0.01,0.43,0.12,0.79,0.22c0-0.05,0.03-0.22-0.01-0.36
			c-0.1-0.36-0.22-0.72-0.34-1.07c-0.04-0.12-0.15-0.22-0.19-0.34c-0.08-0.23-0.24-0.53-0.16-0.68c0.2-0.37,0.53-0.67,0.8-1
			c0.16-0.2,0.38-0.39,0.45-0.63c0.39-1.19,1.01-2.21,2.05-2.91c0.68-0.45,1.41-0.82,2.08-1.21c-0.7-0.35-1.52-0.62-2.41-0.55
			c-1.18,0.09-2.36,0.17-3.44,0.24c-0.43,1.04-0.82,2.02-1.24,3c-0.59,1.35-1.04,2.73-1.22,4.2C60.95,108.96,61.1,109.32,61.7,109.4
			z"/>
		<path class="st0" d="M71.81,101.53c0.38,0.27,0.37,0.29,0.62-0.15c0.54-0.97,1.2-1.11,2.08-0.42c0.55-1.09,1.42-0.83,2.25-0.42
			c0.21,0.1,0.49,0.17,0.71,0.12c1.21-0.27,2.41-0.38,3.53,0.27c0.27,0.16,0.43,0.12,0.66-0.03c1.08-0.7,1.64-0.48,1.96,0.76
			c0.04,0.16,0.05,0.32,0.07,0.54c0.22-0.32,0.42-0.57,0.56-0.85c0.05-0.1-0.02-0.32-0.11-0.4c-1.15-1.06-2.26-2.17-3.48-3.15
			c-0.81-0.65-1.73-1.27-2.85-1.16c-1.09,0.11-2.17,0.31-3.25,0.49c-0.89,0.15-1.78,0.32-2.67,0.49c-0.49,0.1-1.13,0.05-1.44,0.35
			c-0.54,0.51-0.88,1.23-1.27,1.82c0.51,0.34,0.93,0.63,1.35,0.91C70.96,101,71.4,101.24,71.81,101.53z"/>
		<path class="st0" d="M87.74,101.2c-0.12-0.13-0.32-0.21-0.5-0.24c-0.5-0.1-1.01-0.14-1.51-0.24c-0.46-0.09-0.69,0.17-0.83,0.52
			c-0.1,0.26-0.09,0.56-0.14,0.89c1.75,0.25,2.9,1.46,4.16,2.55C88.93,103.83,88.23,101.74,87.74,101.2z"/>
		<path class="st0" d="M74.72,101.12c0.69,0.79,1.28,1.45,1.9,2.16c0.36-0.15,0.82-0.34,1.43-0.6c-0.93-0.6-1.77-1.18-2.64-1.69
			C75.26,100.91,74.98,101.07,74.72,101.12z"/>
		<path class="st0" d="M66.46,109.27c0.34,0.34,0.77,0.59,1.17,0.87c1.66,1.14,3.32,2.24,5.45,2.39c1.46,0.11,2.56-0.5,3.63-1.24
			c-0.15-0.52-0.49-0.51-0.89-0.54c-1.2-0.09-2.07-0.86-2.98-1.56c-0.79-0.6-1.6-1.21-2.49-1.63c-0.83-0.39-1.77-0.67-2.68-0.76
			c-0.88-0.09-1.81,0.05-2.69,0.73C65.49,108.15,65.94,108.75,66.46,109.27z"/>
		<path class="st0" d="M71.97,102.69c0.06-0.36-0.08-0.42-0.36-0.42c-0.1,0-0.2-0.01-0.3,0c-1.1,0.05-2.24-0.08-3.17,0.72
			c-0.37,0.32-0.81,0.58-1.12,0.95c-0.45,0.53-0.81,1.13-1.21,1.7c2.1-0.47,3.82,0.45,5.5,1.06
			C71.53,105.36,71.73,104.02,71.97,102.69z"/>
		<path class="st0" d="M86.25,112.49c-0.19,0.02-0.36,0-0.5,0.04c-1.29,0.41-2.57,0.83-3.85,1.27c-0.16,0.05-0.36,0.19-0.41,0.34
			c-0.12,0.37-0.16,0.77-0.25,1.16c-0.15,0.65-0.41,1.22-1.03,1.59c-0.91,0.54-1.83,0.39-2.77,0.14c-0.46-0.12-0.86-0.12-1.34,0.12
			c-0.7,0.35-1.47,0.77-2.3,0.2c-0.27-0.18-0.56-0.33-0.86-0.46c-0.91-0.4-1.87-0.61-2.84-0.67c-0.17,0.6-0.32,1.15-0.49,1.7
			c-0.1,0.33,0.08,0.47,0.35,0.56c0.32,0.11,0.65,0.21,0.97,0.34c1.55,0.61,3.06,1.32,4.65,1.8c1.81,0.55,3.72,0.43,5.43-0.3
			c1.85-0.79,3.7-1.74,4.74-3.62c0.5-0.89,1.2-1.75,0.78-2.92C86.4,113.39,86.36,112.97,86.25,112.49z"/>
		<path class="st0" d="M91.77,109.98c-0.64-0.67-1.48-0.84-2.35-0.91c-0.08-0.01-0.19,0.1-0.25,0.18c-0.47,0.58-0.93,1.16-1.42,1.77
			c0.89,0.27,1.77,0.49,2.61,0.82c1.07,0.42,2.06,0.99,2.78,1.92c0.08,0.11,0.04,0.41-0.06,0.54c-0.07,0.09-0.34,0.06-0.5,0.01
			c-0.12-0.04-0.2-0.21-0.32-0.29c-0.57-0.43-1.11-0.95-1.74-1.26c-0.9-0.44-1.88-0.73-2.83-1.07c-0.17-0.06-0.38-0.01-0.52-0.01
			c0.27,0.7,0.56,1.34,0.76,2c0.23,0.75-0.4,1.34-0.54,2.07c0.2,0.02,0.34,0.04,0.48,0.04c1.46,0,2.92,0,4.38,0.01
			c1.22,0,2.35-0.29,3.36-1.06c-0.48-0.75-0.9-1.55-1.46-2.23C93.43,111.61,92.58,110.81,91.77,109.98z"/>
		<path class="st0" d="M88.1,109.39c0.41-0.72,0.82-1.44,1.25-2.16c0.15-0.25,0.35-0.47,0.47-0.63c-0.91-0.65-1.9-1.36-2.87-2.08
			c-0.93-0.69-1.95-1.14-3.13-1.25c-0.07,0.9-0.1,1.78-0.22,2.66c-0.21,1.63-0.49,3.26-1.41,4.67c-0.64,0.98-1.32,1.97-2.75,1.84
			c0.7,0.39,1.45,0.27,2.18,0.22c1.39-0.1,2.71-0.54,3.92-1.19C86.49,110.94,87.52,110.41,88.1,109.39z"/>
		<path class="st0" d="M66.76,117.2c0.48-0.33,0.93-0.7,1.4-1.05c-0.01-0.05-0.02-0.1-0.03-0.15c-0.84,0-1.69,0.04-2.52-0.01
			c-0.53-0.03-0.87,0.23-1.14,0.58c-1.11,1.4-1.76,3.05-2.33,4.72c-0.35,1.04-0.55,2.12-0.82,3.19c0.05,0.02,0.1,0.04,0.16,0.07
			c0.18-0.31,0.38-0.61,0.55-0.92c0.56-1.05,1.02-2.16,1.67-3.16C64.49,119.2,65.48,118.06,66.76,117.2z"/>
		<path class="st0" d="M69.2,116.14c-0.07-0.03-0.13-0.07-0.2-0.1c-2.27,2.59-4.84,4.94-6.65,8.07c2.27-1.03,5.77-3.87,6.39-5.12
			c-0.08-0.28-0.19-0.59-0.13-0.85C68.78,117.47,69,116.81,69.2,116.14z"/>
		<path class="st0" d="M75.04,117.11c1.03-0.92,2.08-1.77,3.02-2.74c0.83-0.87,0.75-1.24-0.14-2.1c-0.23-0.22-0.49-0.42-0.76-0.66
			c-0.08,0.05-0.21,0.14-0.35,0.23c-0.15,0.1-0.3,0.2-0.46,0.29c-1.72,1.07-3.58,1.54-5.55,0.94c-2.17-0.66-4.31-1.41-5.84-3.25
			c-1.37,1.41-2.14,3.1-2.78,5.04c1.35,0,2.6,0,3.84,0c0.93,0,1.87-0.11,2.78-0.02c1.17,0.12,2.33,0.32,3.47,0.6
			C73.27,115.72,74.25,116.08,75.04,117.11z"/>
		<path class="st0" d="M79.59,116.19c0.21-0.02,0.48-0.28,0.56-0.5c0.23-0.6,0.38-1.22,0.57-1.84c-0.35-0.06-0.64-0.1-0.99-0.16
			c-0.23,1.14-1.22,1.71-2.03,2.52C78.38,116.21,78.99,116.25,79.59,116.19z"/>
	</g>
	<path class="st0" d="M149.7,55.95c-0.45-0.52-1-0.66-1.62-0.35c-0.31,0.16-0.57,0.43-0.86,0.66c-1.3-0.47-2.53,0.19-3.78,0.37
		c0.23-0.34,0.44-0.68,0.68-1c0.72-0.98,1.46-1.95,2.18-2.93c0.19-0.26,0.37-0.39,0.72-0.29c0.7,0.2,1.55-0.19,1.72-0.87
		c0.16-0.62,0.22-1.3,0.16-1.94c-0.07-0.78-1.28-1.21-1.91-0.74c-0.86,0.65-1.23,1.51-1.15,2.58c0.01,0.11,0.03,0.27-0.03,0.34
		c-0.57,0.66-1.18,1.29-1.73,1.97c-0.92,1.13-1.8,2.3-2.69,3.45c-0.18,0.24-0.35,0.48-0.59,0.82c-0.03-0.26-0.07-0.38-0.06-0.5
		c0.1-1.23,0.24-2.46,0.3-3.7c0.06-1.17,0.05-2.35,0.05-3.53c-0.01-1.26-0.01-2.52-0.07-3.78c-0.08-1.57-0.2-3.15-0.32-4.72
		c-0.03-0.45-0.11-0.9-0.14-1.36c-0.07-1.01-0.1-2.02-0.2-3.03c-0.1-0.97-0.26-1.93-0.42-2.89c-0.24-1.45-0.45-2.91-0.76-4.35
		c-0.2-0.94-0.52-1.86-0.85-2.77c-0.52-1.47-1.06-2.93-1.66-4.38c-0.59-1.43-1.23-2.85-1.9-4.25c-0.73-1.52-1.51-3.03-2.3-4.52
		c-0.44-0.82-0.4-1.43,0.28-2.11c0.08-0.08,0.3-0.13,0.41-0.08c1.03,0.47,2.38,0.17,2.93-1.17c0.34-0.83-0.12-1.61-0.62-2.1
		c-0.47-0.45-1.65-0.36-1.99,0.03c-0.49,0.56-1.17,1.05-1.06,1.96c0.02,0.14-0.06,0.33-0.16,0.45c-0.26,0.32-0.56,0.61-0.86,0.94
		c-0.08-0.11-0.18-0.2-0.22-0.31c-0.39-1.04-0.89-2.05-1.13-3.13c-0.2-0.86-0.11-1.8-0.11-2.7c0-0.35,0.16-0.55,0.62-0.57
		c1.22-0.05,2.19-1.42,1.75-2.51c-0.18-0.44-0.6-0.81-0.98-1.13c-0.65-0.54-1.27-0.5-1.93,0.03c-0.61,0.49-0.92,1.45-0.58,2.06
		c0.27,0.48,0.45,0.9,0.09,1.42c-0.11,0.16-0.1,0.42-0.11,0.63c-0.02,0.34,0,0.67,0,1.01c-0.04,0.01-0.09,0.02-0.13,0.03
		c-0.26-0.5-0.52-1.01-0.77-1.51c-0.05,0.02-0.11,0.05-0.16,0.07c-0.21,0.98,0.28,1.88,0.47,2.87c-0.22-0.13-0.39-0.2-0.54-0.31
		c-0.87-0.61-1.71-1.26-2.6-1.82c-0.49-0.31-0.87-0.67-1.23-1.11c-0.26-0.31-0.62-0.57-0.97-0.77c-0.38-0.22-0.82-0.23-1.18,0.08
		c-0.4,0.35-0.56,0.8-0.43,1.33c0.29,1.17,1.47,1.35,2.37,1.07c0.36-0.11,0.6-0.14,0.89,0.1c1.14,0.96,2.25,1.98,3.46,2.85
		c1.6,1.14,2.19,2.93,3.07,4.52c0.78,1.43,1.38,2.96,2.01,4.46c0.98,2.33,1.96,4.66,2.87,7.01c0.39,1.01,0.66,2.08,0.94,3.13
		c0.29,1.1,0.56,2.21,0.79,3.33c0.16,0.76,0.24,1.53,0.34,2.3c0.06,0.48,0.1,0.97,0.15,1.53c-1.56-2.55-3.06-5.02-4.58-7.49
		c0.39-0.19,0.68-0.28,0.89-0.46c0.84-0.69,0.76-1.88-0.12-2.74c-0.82-0.8-1.78-0.46-2.3,0.05c-0.65,0.64-0.63,1.89,0.13,2.38
		c0.78,0.5,1.11,1.04,1.23,2c0.15,1.14,0.73,2.22,1.12,3.31c-0.46-0.27-0.96-0.56-1.45-0.87c-0.08-0.05-0.15-0.17-0.15-0.26
		c0.02-0.94-0.66-1.44-1.26-1.95c-0.64-0.55-1.39-0.58-1.92-0.19c-0.49,0.36-0.68,1.21-0.38,1.86c0.69,1.48,2.03,1.95,3.28,0.97
		c0.45,0.33,0.91,0.63,1.33,0.97c0.78,0.64,1.7,1.15,2.2,2.08c0.38,0.7,0.73,1.41,1.04,2.15c0.61,1.44,1.38,2.81,1.37,4.48
		c0,1.92,0.23,3.83,0.33,5.75c0.04,0.81,0.03,1.63,0.03,2.44c0,1.24,0.01,2.49-0.02,3.73c-0.02,0.8-0.1,1.59-0.17,2.39
		c-0.08,0.94-0.11,1.88-0.26,2.81c-0.2,1.23-0.49,2.44-0.73,3.66c-0.18,0.88-0.29,1.78-0.54,2.65c-0.35,1.23-0.77,2.44-1.18,3.65
		c-0.36,1.06-0.72,2.12-1.12,3.17c-0.36,0.96-0.76,1.9-1.14,2.85c-0.28,0.7-0.52,1.42-0.84,2.1c-0.32,0.67-0.72,1.3-1.09,1.95
		c-0.25,0.43-0.5,0.85-0.75,1.27c-0.04-0.02-0.09-0.04-0.13-0.07c0.11-0.51,0.26-1.02,0.33-1.54c0.08-0.54,0.09-1.09,0.16-1.63
		c0.06-0.5,0.02-1.04,0.69-1.26c0.17-0.05,0.3-0.41,0.34-0.65c0.08-0.43,0.15-0.88,0.09-1.3c-0.21-1.43-1.43-2.08-2.65-1.43
		c-1.05,0.56-1.24,2.59-0.2,3.25c0.73,0.46,0.52,1,0.53,1.58c0,0.2,0,0.39-0.03,0.59c-0.08,0.56-0.17,1.12-0.25,1.69
		c-0.31-0.54-0.48-1.07-0.75-1.57c-0.1-0.2-0.4-0.29-0.61-0.43c-0.1,0.27-0.31,0.56-0.28,0.82c0.08,0.65,0.25,1.28,0.41,1.91
		c0.26,1,0.38,1.95,0.01,3.01c-0.6,1.75-1.56,3.23-2.72,4.61c-1,1.19-2.03,2.36-3.07,3.5c-0.51,0.56-1.09,1.06-1.66,1.57
		c-0.8,0.71-1.61,1.4-2.41,2.11c-0.47,0.42-0.91,0.88-1.39,1.3c-0.54,0.47-1.09,0.91-1.65,1.35c-0.76,0.6-1.53,1.19-2.3,1.78
		c-0.44,0.33-0.9,0.64-1.37,0.94c-0.34,0.22-0.69,0.41-1.1,0.66c0.01-0.17,0-0.24,0.02-0.3c0.34-0.92,0.76-1.81,1.01-2.75
		c0.48-1.77,0.97-3.55,0.93-5.42c-0.05-2.04,0.08-4.1-0.35-6.12c-0.02-0.1,0.02-0.26,0.09-0.33c0.78-0.73,0.66-1.59,0.4-2.49
		c-0.37-1.31-1.78-1.32-2.6-0.68c-0.71,0.55-0.58,1.29-0.51,2.01c0.05,0.56,0.31,1.01,0.91,1.17c0.36,0.1,0.72,0.22,1.09,0.34
		c0.36,2.17-0.56,9.04-1.3,9.71c-0.16-0.65-0.33-1.3-0.48-1.95c-0.03-0.15-0.08-0.37,0-0.45c0.69-0.74,0.63-1.49,0.13-2.3
		c-0.16-0.26-0.15-0.64-0.65-0.47c-0.3,0.1-0.72-0.07-0.98,0.07c-0.57,0.3-0.72,0.85-0.64,1.49c0.09,0.7,0.51,1.09,1.12,1.27
		c0.45,0.13,0.54,0.38,0.55,0.78c0.02,0.62,0.07,1.24,0.11,1.86c0.1,1.6,0.18,3.19-0.75,4.62c-0.12,0.18-0.14,0.42-0.24,0.61
		c-0.28,0.5-0.49,1.08-0.88,1.45c-0.45,0.43-1.06,0.68-1.62,0.98c-0.73,0.41-1.46,0.8-2.2,1.18c-0.98,0.5-1.97,0.97-2.94,1.48
		c-2.11,1.11-4.2,2.24-6.25,3.33c-0.09-0.07-0.17-0.15-0.26-0.22c0.13,0.12,0.44,0.42,0.63,0.72c-0.06-0.1-0.12-0.2-0.18-0.3
		c0.2-0.04,0.43-0.09,0.66-0.15c1.57-0.37,3.18-0.64,4.71-1.15c1.25-0.41,2.59-0.61,3.73-1.36c0.57-0.37,1.27-0.53,1.9-0.82
		c0.83-0.39,1.66-0.78,2.46-1.23c0.84-0.48,1.64-1.04,2.47-1.54c0.98-0.6,2-1.15,2.96-1.79c1.28-0.86,2.54-1.75,3.77-2.68
		c0.83-0.63,1.6-1.35,2.39-2.04c0.32-0.28,0.64-0.56,0.94-0.86c0.82-0.83,1.62-1.68,2.42-2.52c0.97-1.01,1.96-2,2.89-3.05
		c0.63-0.7,1.18-1.47,1.74-2.23c0.74-1,1.5-1.98,2.18-3.02c0.6-0.9,1.1-1.87,1.66-2.8c0.38-0.64,0.9-1.21,1.17-1.89
		c0.75-1.85,1.91-3.29,3.7-4.21c0.35-0.18,0.71-0.37,1.04-0.58c0.82-0.53,1.62-1.09,2.43-1.62c0.15-0.1,0.32-0.17,0.43-0.22
		c0.29,0.26,0.54,0.53,0.83,0.74c0.84,0.6,1.76,0.51,2.4-0.2c0.58-0.64,0.64-1.45,0.75-2.24c0.01-0.05-0.02-0.11-0.04-0.15
		c-0.48-1.01-2.33-1.33-3.05-0.48c-0.68,0.8-1.65,0.87-2.62,1.35c0.25-0.82,0.48-1.47,0.65-2.14c0.05-0.19-0.06-0.43-0.09-0.64
		c-0.18,0.12-0.43,0.2-0.53,0.36c-0.61,1.03-1.15,2.11-1.79,3.13c-0.43,0.69-0.99,1.3-1.49,1.95c-0.05-0.04-0.1-0.07-0.16-0.11
		c0.18-0.39,0.4-0.76,0.54-1.16c0.27-0.77,0.49-1.55,0.75-2.32c0.1-0.29,0.26-0.55,0.36-0.84c0.31-0.93,0.61-1.87,0.9-2.81
		c0.38-1.23,0.87-2.45,1.09-3.72c0.27-1.54,0.67-3,1.44-4.37c0.58-1.03,1.04-2.13,1.58-3.18c0.11-0.21,0.28-0.49,0.48-0.54
		c1.28-0.31,2.58-0.56,3.87-0.83c-0.01,0.07-0.02,0.14-0.03,0.21c0.22,0.34,0.39,0.74,0.68,0.99c0.72,0.6,1.69,0.29,2.28-0.67
		C150.1,56.93,150.09,56.4,149.7,55.95z"/>
	<path class="st0" d="M123.93,105.72c-1.64-0.56-3.32-0.95-5.07-0.82c-0.67,0.05-1.34,0.1-2.02,0.15c-0.01-0.03-0.01-0.06-0.02-0.09
		c-0.84,0.17-1.68,0.32-2.51,0.53c-2.01,0.51-4.07,0.84-5.93,1.83c-0.82,0.43-1.63,0.89-2.42,1.37c-0.34,0.2-0.44,0.57-0.16,0.89
		c0.22,0.25,0.5,0.46,0.79,0.62c1.17,0.69,2.46,0.99,3.81,1.03c1.34,0.03,2.68,0.01,4.02,0.02c1.99,0.01,3.78-0.69,5.49-1.63
		c0.9-0.5,1.77-1.07,2.63-1.65c0.51-0.34,1-0.73,1.46-1.14C124.48,106.38,124.45,105.91,123.93,105.72z"/>
	<path class="st0" d="M117.54,95c0.14-0.17,0.29-0.35,0.36-0.55c0.49-1.31,1.07-2.6,1.41-3.95c0.92-3.68,0.85-7.37-0.14-11.04
		c-0.18-0.65-0.44-1.28-0.7-2.03c-0.35,0.24-0.54,0.35-0.71,0.49c-1.75,1.45-2.72,3.39-3.12,5.56c-0.33,1.82-0.5,3.67-0.57,5.52
		c-0.08,2.25,0.65,4.27,2.11,6.01C116.55,95.47,117.17,95.46,117.54,95z"/>
	<path class="st0" d="M132.27,93.9c-1.28-0.04-2.56-0.07-3.78,0.35c-1.34,0.46-2.68,0.96-3.95,1.58c-0.92,0.45-1.78,1.08-2.56,1.74
		c-1.05,0.88-2.01,1.86-2.97,2.83c-0.11,0.11-0.09,0.52,0.03,0.65c0.16,0.18,0.46,0.26,0.71,0.33c0.18,0.05,0.41-0.05,0.57,0.02
		c1.52,0.69,3.07,1.14,4.78,1.06c1.77-0.08,3.47-0.49,4.9-1.47c1.69-1.16,3.22-2.55,4.82-3.84c0.68-0.55,1.35-1.12,2.03-1.67
		c0.26-0.21,0.54-0.39,0.89-0.64c-0.22-0.11-0.28-0.16-0.35-0.18C135.71,94.24,134.01,93.96,132.27,93.9z"/>
	<path class="st0" d="M32.3,93.48c0.26,0.47,0.99,0.53,1.28,0.09c0.62-0.94,1.29-1.88,1.69-2.91c0.56-1.44,0.59-3,0.48-4.53
		c-0.09-1.3-0.34-2.59-0.53-3.88c-0.26-1.72-0.9-3.29-1.99-4.65c-0.48-0.6-1.09-1.09-1.68-1.66c-0.23,0.33-0.44,0.51-0.51,0.74
		c-0.68,2.08-1.11,4.21-1.13,6.4c-0.02,2.6,0.15,5.19,1.11,7.64C31.38,91.67,31.81,92.59,32.3,93.48z"/>
	<path class="st0" d="M43.83,107.19c-0.34-0.26-0.74-0.45-1.11-0.68c-1.61-1.02-3.4-1.62-5.23-2.04c-1.69-0.39-3.35-0.91-5.11-0.96
		c-1.23-0.04-2.46-0.2-3.68,0.02c-0.92,0.17-1.83,0.42-2.73,0.69c-0.19,0.06-0.47,0.42-0.42,0.53c0.13,0.31,0.36,0.61,0.62,0.82
		c0.5,0.4,1.04,0.77,1.59,1.11c1.18,0.72,2.35,1.46,3.57,2.1c1.8,0.94,3.78,1,6.05,1.08c0.77-0.05,1.85-0.05,2.89-0.22
		c1.25-0.21,2.52-0.41,3.5-1.42C44.19,107.79,44.32,107.56,43.83,107.19z"/>
	<path class="st0" d="M28.94,100.1c0.34-0.1,0.76-0.37,1.02-0.26c0.47,0.19,0.64-0.04,0.86-0.3c0.24-0.29,0.15-0.52-0.1-0.75
		c-0.54-0.49-1.07-1-1.61-1.49c-0.63-0.57-1.21-1.21-1.9-1.69c-0.92-0.64-1.87-1.25-2.89-1.71c-1.2-0.54-2.44-1.06-3.72-1.29
		c-1.33-0.24-2.73-0.22-4.08-0.13c-1.44,0.1-2.86,0.43-4.29,0.66c-0.02,0.08-0.04,0.17-0.06,0.25c0.31,0.22,0.65,0.41,0.94,0.66
		c1.28,1.07,2.54,2.17,3.81,3.25c1.5,1.28,3.06,2.47,4.96,3.15c1.31,0.47,2.68,0.57,4.01,0.51C26.91,100.91,27.92,100.4,28.94,100.1
		z"/>
	<path class="st0" d="M104.69,103.54c0.09,0.15,0.3,0.23,0.46,0.34c0.09-0.15,0.2-0.29,0.26-0.45c0.2-0.6,0.36-1.21,0.57-1.81
		c0.45-1.27,1.02-2.51,1.36-3.81c0.57-2.15,0.8-4.37,0.78-6.59c-0.01-1.51-0.09-3.03-0.34-4.52c-0.21-1.22-0.71-2.4-1.12-3.58
		c-0.07-0.19-0.42-0.46-0.54-0.41c-0.22,0.09-0.41,0.35-0.52,0.58c-0.27,0.57-0.5,1.17-0.74,1.76c-0.63,1.57-1.44,3.09-1.84,4.72
		c-0.46,1.87-0.57,3.82-0.81,5.63c0.19,1.14,0.34,2.14,0.51,3.14C103.03,100.34,103.79,101.97,104.69,103.54z"/>
	<path class="st0" d="M143.53,77.9c-0.45,0.06-0.89,0.19-1.32,0.32c-1.26,0.37-2.56,0.65-3.74,1.17c-0.9,0.4-1.66,1.11-2.46,1.71
		c-1.46,1.11-2.71,2.4-3.78,3.9c-0.99,1.38-1.63,2.93-2.41,4.41c-0.13,0.25-0.19,0.54-0.3,0.85c0.8,0.18,0.92,0.11,1.37-0.56
		c0.09-0.14,0.23-0.29,0.37-0.33c0.98-0.31,2.01-0.52,2.95-0.91c1-0.41,1.97-0.93,2.88-1.51c0.89-0.56,1.78-1.16,2.51-1.9
		c1.32-1.35,2.52-2.83,3.4-4.52c0.35-0.68,0.74-1.35,1.02-2.05C144.21,77.99,144.05,77.83,143.53,77.9z"/>
	<path class="st0" d="M41.79,91.43c0.08,0.79,0.09,1.6,0.24,2.38c0.28,1.4,0.61,2.79,0.98,4.17c0.35,1.32,1.21,2.46,1.39,3.85
		c0.02,0.19,0.18,0.37,0.28,0.55c0.18-0.16,0.42-0.3,0.53-0.5c0.4-0.77,0.8-1.54,1.13-2.34c0.75-1.83,1.15-3.76,1.14-5.72
		c-0.01-1.51-0.24-3.02-0.47-4.53c-0.27-1.74-0.95-3.29-1.65-4.86c-0.4-0.9-0.76-1.83-1.17-2.73c-0.1-0.21-0.31-0.42-0.53-0.5
		c-0.09-0.04-0.38,0.22-0.45,0.39c-0.32,0.76-0.72,1.52-0.87,2.32c-0.29,1.52-0.46,3.07-0.61,4.62c-0.09,0.89-0.03,1.8-0.04,2.69
		c0,0-0.02-0.02-0.02-0.02C41.71,91.28,41.79,91.35,41.79,91.43z"/>
	<path class="st0" d="M17.12,87.53c0.4,0.15,0.83,0.25,1.26,0.3c0.28,0.03,0.44,0.08,0.57,0.36c0.25,0.53,0.64,0.83,1.39,0.55
		c-0.33-0.68-0.72-1.3-0.95-1.97c-0.63-1.82-1.82-3.3-2.99-4.76c-0.7-0.88-1.62-1.6-2.5-2.32c-0.81-0.66-1.64-1.4-2.58-1.79
		c-1.45-0.6-3.02-0.95-4.54-1.37c-0.31-0.09-0.66-0.03-0.99-0.03c0.09,0.37,0.1,0.79,0.28,1.11c0.61,1.11,1.22,2.22,1.95,3.26
		c0.68,0.97,1.42,1.94,2.29,2.74c0.87,0.81,1.94,1.4,2.92,2.1C14.41,86.55,15.77,87.03,17.12,87.53z"/>
	<path class="st0" d="M124.82,69.38c-0.17-0.01-0.43,0.2-0.52,0.38c-1.06,2.09-2.05,4.21-2.53,6.53c-0.32,1.58-0.5,3.17-0.3,4.77
		c0.1,0.79,0.31,1.56,0.48,2.34c0.37,1.7,0.88,3.35,2.06,4.68c0.31,0.35,0.72,0.61,1.19,1c0.17-0.44,0.23-0.71,0.37-0.94
		c0.99-1.58,1.45-3.35,1.68-5.16c0.19-1.49,0.21-3.01,0.2-4.52c-0.01-0.97-0.15-1.95-0.33-2.91c-0.18-0.98-0.46-1.95-0.75-2.9
		c-0.29-0.97-0.63-1.94-1-2.89C125.32,69.59,125.02,69.39,124.82,69.38z"/>
	<path class="st0" d="M24.53,87.47c1.12-0.44,1.69-1.28,2.14-2.15c0.95-1.83,1.39-3.83,1.65-5.85c0.28-2.21-0.11-4.37-0.77-6.48
		c-0.2-0.65-0.44-1.29-0.72-1.92c-0.45-1.01-0.93-2-1.44-2.98c-0.19-0.36-0.66-0.33-0.88,0.03c-0.12,0.2-0.21,0.42-0.29,0.64
		c-0.36,1.02-0.73,2.04-1.06,3.06c-0.17,0.51-0.3,1.05-0.38,1.58c-0.15,1.03-0.27,2.07-0.35,3.11c-0.07,1.01-0.13,2.02-0.1,3.03
		c0.04,1.61,0.31,3.19,0.86,4.7C23.59,85.32,24.07,86.36,24.53,87.47z"/>
	<path class="st0" d="M133.75,60.66c-0.3-1.29-0.56-2.6-1.46-3.65c-0.54-0.62-1-0.61-1.28,0.16c-0.53,1.41-0.99,2.84-1.46,4.27
		c-0.49,1.51-0.56,3.08-0.12,4.56c0.59,1.97,1.39,3.87,2.99,5.31c0.75,0.68,1.07,0.63,1.37-0.35c0.03-0.09,0.07-0.17,0.1-0.26
		c0.54-1.46,0.64-2.98,0.56-4.52c-0.06-1.05-0.17-2.11-0.28-3.46C134.07,62.23,133.93,61.44,133.75,60.66z"/>
	<path class="st0" d="M17.01,70.11c0.41-0.28,0.8-0.64,1.09-1.03c1.44-1.93,2.44-4.05,2.56-6.86c-0.09-0.5-0.22-1.36-0.4-2.2
		c-0.12-0.54-0.29-1.08-0.47-1.6c-0.33-0.95-0.67-1.91-1.05-2.85c-0.23-0.57-0.74-0.63-1.11-0.22c-0.73,0.82-1.09,1.82-1.33,2.86
		c-0.31,1.39-0.55,2.79-0.77,4.2c-0.14,0.9-0.23,1.81-0.22,2.71c0.02,1.58,0.24,3.13,0.76,4.64C16.26,70.24,16.58,70.41,17.01,70.11
		z"/>
	<path class="st0" d="M137.9,52.84c-0.02-1.98-1.02-3.47-2.36-4.82c-1.09-1.1-2.45-1.77-3.77-2.5c-0.34-0.19-0.77-0.22-1.16-0.32
		c-0.02,0.38-0.11,0.77-0.06,1.13c0.35,2.61,1.32,4.94,3.28,6.76c0.76,0.71,1.62,1.31,2.37,1.31
		C137.47,54.39,137.91,53.86,137.9,52.84z"/>
	<path class="st0" d="M138.04,41.76c-0.01-0.11,0.01-0.23-0.04-0.32c-0.53-1.24-0.96-2.54-1.95-3.51c-1.86-1.83-3.93-3.37-6.41-4.26
		c-0.53-0.19-0.86,0.01-0.86,0.6c0,0.6,0.02,1.2,0.06,1.8c0.1,1.71,0.83,3.18,2.1,4.25c1.86,1.59,4.11,2.19,6.56,2.01
		C137.86,42.28,138.1,42.19,138.04,41.76z"/>
	<path class="st0" d="M149.23,62.6c-0.96-0.26-1.93-0.46-2.9-0.68c-0.01,0.05-0.02,0.1-0.03,0.14c-1.56-0.1-2.85,0.51-3.97,1.52
		c-1.04,0.95-1.9,2.07-2.5,3.35c-0.4,0.86-0.7,1.76-1.02,2.65c-0.08,0.23,0,0.5,0.32,0.37c0.96-0.38,1.96-0.7,2.84-1.21
		c1.78-1.03,3.52-2.14,5.22-3.28c0.81-0.54,1.54-1.22,2.26-1.89C149.9,63.16,149.8,62.76,149.23,62.6z"/>
	<path class="st0" d="M10.96,68.67c0.03-0.35,0.08-0.49,0.04-0.59c-0.5-1.35-0.92-2.75-1.79-3.93c-0.5-0.67-1.04-1.3-1.61-1.91
		c-0.72-0.76-1.58-1.34-2.62-1.55c-1.47-0.29-2.91-0.13-4.32,0.38C0,61.33-0.08,61.65,0.45,62.14c0.65,0.6,1.31,1.21,2.04,1.71
		c1.45,0.99,2.91,1.97,4.43,2.84C8.17,67.41,9.52,67.97,10.96,68.67z"/>
	<path class="st0" d="M17.55,49.74c1.06-1.61,1.57-3.47,1.81-5.39c0.03-0.21-0.04-0.5-0.18-0.64c-0.1-0.09-0.42-0.03-0.6,0.06
		c-0.79,0.41-1.58,0.81-2.33,1.28c-2.28,1.45-4.14,3.22-4.3,6.14c-0.05,0.95,0.14,1.7,1.31,1.69c0.11,0,0.22,0.01,0.33,0
		c0.07-0.01,0.14-0.04,0.21-0.06C15.55,52.39,16.65,51.11,17.55,49.74z"/>
	<path class="st0" d="M21.03,33.24c0-0.2,0.02-0.4,0-0.6c-0.05-0.43-0.35-0.67-0.71-0.5c-0.95,0.42-1.94,0.8-2.81,1.36
		c-1.06,0.68-2.01,1.52-3.01,2.28c-1.41,1.06-2.03,2.64-2.66,4.19c-0.09,0.22-0.23,0.69,0.23,0.79c0.44,0.1,0.91,0.17,1.35,0.11
		c1.39-0.17,2.75-0.43,4.02-1.07c1.49-0.76,2.56-1.92,3.11-3.47c0.34-0.97,0.4-2.04,0.59-3.06C21.1,33.25,21.07,33.24,21.03,33.24z"
		/>
	<path class="st0" d="M141.53,49.06c0,0.35-0.02,0.7,0,1.04c0.02,0.4,0.36,0.61,0.67,0.38c0.48-0.36,0.99-0.71,1.38-1.16
		c1.5-1.76,2.58-3.76,3.3-5.96c0.42-1.27,0.58-2.59,0.51-3.93c-0.03-0.58-0.34-0.76-0.78-0.38c-0.93,0.81-1.95,1.58-2.7,2.54
		C142.23,43.76,141.7,46.36,141.53,49.06z"/>
	<path class="st0" d="M4.69,45.63c0.69,1.27,1.53,2.48,2.83,3.25c0.15,0.09,0.4,0.17,0.52,0.1c0.13-0.07,0.2-0.31,0.22-0.49
		c0.03-0.29,0.01-0.59,0.01-0.88c-0.06-1.95-0.5-3.81-1.25-5.63c-0.8-1.96-2.3-3.26-3.91-4.48c-0.37-0.28-0.62-0.14-0.67,0.32
		c-0.13,1.18-0.03,2.38,0.35,3.48C3.31,42.79,3.94,44.25,4.69,45.63z"/>
	<path class="st0" d="M133.25,23.4c0.15,0.02,0.38,0.06,0.43-0.01c0.1-0.15,0.2-0.41,0.13-0.54c-0.42-0.78-0.78-1.64-1.37-2.27
		c-0.7-0.74-1.57-1.37-2.45-1.89c-1.2-0.72-2.48-1.31-3.75-1.91c-0.42-0.2-0.68,0.02-0.69,0.51c0.05,0.3,0.09,0.64,0.15,0.99
		c0.28,1.68,1.02,3.12,2.56,3.91c0.94,0.48,2.01,0.71,3.05,0.97C131.94,23.32,132.6,23.33,133.25,23.4z"/>
	<path class="st0" d="M140.9,35.36c0.2-0.17,0.4-0.35,0.6-0.52c0.03-0.02,0.06-0.04,0.08-0.07c0.37-0.51,0.82-0.98,1.11-1.53
		c1.04-2.04,1.39-4.24,1.43-6.73c-0.03-0.28-0.09-0.79-0.14-1.29c-0.05-0.55-0.7-0.67-1.01-0.31c-0.25,0.29-0.54,0.54-0.76,0.86
		c-0.96,1.4-1.5,2.98-1.88,4.62c-0.32,1.37-0.37,2.73,0.12,4.08C140.56,34.78,140.75,35.06,140.9,35.36z"/>
	<path class="st0" d="M6.79,31c0.36,1.06,1.08,1.9,1.79,2.73c0.23,0.27,0.42,0.15,0.52-0.12c0.18-0.49,0.34-0.99,0.48-1.5
		c0.29-1.08,0.15-2.16-0.11-3.22C9,26.95,8.43,25.03,6.96,23.53c-0.23-0.23-0.48-0.41-0.76-0.27c-0.16,0.08-0.31,0.35-0.33,0.55
		c-0.08,0.95-0.11,1.91-0.15,2.71c0.14,0.8,0.21,1.43,0.36,2.04C6.29,29.38,6.52,30.2,6.79,31z"/>
	<path class="st0" d="M23.3,19.02c0.49-0.78,0.73-1.64,0.83-2.54c0.04-0.38-0.01-0.76-0.02-1.15c-0.35,0.05-0.73,0.04-1.06,0.17
		c-1.7,0.69-3.22,1.68-4.72,2.72c-1.17,0.8-1.77,1.96-2.33,3.17c-0.06,0.13,0.02,0.37,0.11,0.49c0.06,0.07,0.28,0.05,0.42,0.02
		c0.19-0.03,0.37-0.09,0.56-0.14c0.01,0.04,0.02,0.09,0.03,0.13c0.8-0.15,1.6-0.29,2.4-0.45C21.1,21.12,22.42,20.41,23.3,19.02z"/>
	<path class="st0" d="M137.15,22.66c0.13,0.22,0.45,0.57,0.51,0.54c0.28-0.14,0.63-0.37,0.72-0.64c0.34-1.05,0.63-2.11,0.85-3.19
		c0.32-1.52,0.04-3.01-0.36-4.48c-0.29-1.03-0.5-1.08-1.28-0.31c-1.05,1.04-1.51,2.33-1.52,3.12
		C136.01,19.91,136.39,21.33,137.15,22.66z"/>
	<path class="st0" d="M12.14,21.7c0.1,0.04,0.38-0.28,0.49-0.48c0.97-1.8,1.42-3.68,0.92-5.73c-0.31-1.27-0.96-2.28-2.17-3.01
		c-0.13,0.24-0.31,0.44-0.35,0.67c-0.19,1.07-0.36,2.15-0.5,3.23c-0.23,1.69,0.38,3.24,0.95,4.77C11.57,21.4,11.88,21.61,12.14,21.7
		z"/>
	<path class="st0" d="M52.64,109.32c-0.25,0.16-0.45,0.31-0.52,0.35c0.11-0.07,0.22-0.14,0.33-0.21
		C52.51,109.41,52.57,109.37,52.64,109.32z"/>
	<path class="st0" d="M54.22,108.59c-0.37,0.07-0.7,0.02-1.09-0.19c-1.37-0.74-2.77-1.42-4.15-2.15c-0.61-0.32-1.19-0.72-1.81-1.04
		c-0.6-0.31-1.25-0.54-1.85-0.85c-0.78-0.4-1.52-0.89-2.31-1.28c-0.81-0.4-1.6-0.75-1.92-1.73c-0.36-1.14-1.15-2.07-1.25-3.39
		c-0.12-1.53,0.03-3.03,0.1-4.54c0.01-0.15,0.14-0.38,0.26-0.41c0.99-0.21,1.44-0.84,1.46-1.82l0.02,0.02
		c-0.28-1.15-1.08-1.35-2.12-1.07c-0.13,0.26-0.3,0.56-0.43,0.88c-0.18,0.43-0.32,0.86,0.02,1.28c0.36,0.46,0.44,0.94,0.24,1.51
		c-0.19,0.54-0.28,1.12-0.43,1.75c-1.1-3.31-1.42-6.65-1.33-10.05c0.22-0.04,0.38-0.06,0.54-0.1c1.02-0.25,1.57-0.58,1.54-1.82
		c0-0.16-0.01-0.33,0-0.49c0.06-0.64-0.38-1.02-0.83-1.24c-0.48-0.24-1.05-0.41-1.61-0.04c-0.97,0.66-1.2,2.44-0.37,3.26
		c0.2,0.2,0.21,0.36,0.18,0.59c-0.11,0.77-0.27,1.54-0.29,2.31c-0.04,2.56-0.3,5.13,0.51,7.64c0.17,0.53,0.23,1.09,0.42,1.62
		c0.32,0.93,0.7,1.85,1.05,2.77c-0.04,0.03-0.08,0.06-0.12,0.09c-0.12-0.06-0.24-0.11-0.35-0.19c-0.4-0.3-0.77-0.64-1.19-0.92
		c-0.75-0.51-1.54-0.95-2.27-1.49c-0.84-0.62-1.64-1.31-2.44-1.98c-0.44-0.37-0.88-0.74-1.3-1.14c-0.58-0.54-1.07-1.19-1.71-1.64
		c-1.23-0.88-2.29-1.94-3.29-3.05c-1.12-1.23-2.17-2.53-3.21-3.83c-0.5-0.63-0.96-1.31-1.3-2.04c-0.36-0.75-0.58-1.56-0.83-2.36
		c-0.08-0.26-0.1-0.56-0.04-0.83c0.22-1.1,0.51-2.18,0.71-3.28c0.04-0.24-0.18-0.54-0.28-0.81c-0.2,0.15-0.48,0.25-0.58,0.45
		c-0.28,0.55-0.48,1.14-0.71,1.72c-0.17-0.94-0.26-1.88-0.36-2.83c-0.06-0.52-0.07-0.98,0.56-1.17c0.1-0.03,0.18-0.18,0.25-0.28
		c0.59-0.82,0.51-1.66,0.06-2.51c-0.26-0.49-0.7-0.69-1.2-0.71c-0.57-0.03-1.16,0.04-1.51,0.58c-0.31,0.49-0.56,1.03-0.46,1.63
		c0.11,0.64,0.05,1.39,0.9,1.64c0.09,0.03,0.16,0.26,0.18,0.4c0.08,0.7,0.12,1.41,0.22,2.1c0.08,0.58,0.22,1.15,0.33,1.73
		c-0.05,0.02-0.11,0.04-0.16,0.06c-0.64-1.13-1.32-2.24-1.9-3.4c-0.46-0.94-0.8-1.94-1.17-2.91c-0.12-0.32-0.17-0.67-0.3-0.98
		c-0.32-0.79-0.7-1.56-0.99-2.36c-0.38-1.04-0.7-2.11-1.03-3.17c-0.38-1.23-0.76-2.45-1.08-3.7c-0.26-1-0.43-2.03-0.62-3.05
		c-0.12-0.64-0.26-1.27-0.33-1.92c-0.08-0.67-0.07-1.35-0.13-2.03c-0.09-1.08-0.27-2.15-0.3-3.22c-0.04-1.37,0.03-2.74,0.05-4.11
		c0.02-1.43-0.02-2.85,0.04-4.28c0.06-1.48,0.21-2.95,0.32-4.42c0.01-0.1,0.04-0.21,0.08-0.31c0.56-1.34,1.1-2.7,1.71-4.02
		c0.32-0.69,0.69-1.41,1.22-1.92c0.9-0.88,1.94-1.61,2.91-2.4c0.89,0.91,2.5,0.7,3.12-0.59c0.38-0.78,0.41-1.52-0.08-2.02
		c-0.43-0.45-1.2-0.51-1.88-0.01c-0.68,0.5-1.42,1.01-1.38,2.03c0,0.09-0.03,0.24-0.1,0.28c-0.56,0.33-1.13,0.64-1.7,0.96
		c0.15-0.32,0.29-0.62,0.43-0.92c0.48-1.04,1.01-2.06,0.94-3.25c-0.02-0.43,0.09-0.64,0.51-0.79c1.1-0.4,1.53-1.72,0.91-2.63
		c-0.37-0.53-1.2-0.84-1.78-0.65c-0.69,0.23-1.39,1.13-1.38,1.82c0.02,0.66,0.32,1.39,1.11,1.55c0.11,0.02,0.21,0.11,0.4,0.21
		c-1.55,2.54-3.07,5.03-4.6,7.54c0-0.12-0.01-0.23,0-0.34c0.22-1.47,0.45-2.94,0.68-4.41c0.11-0.66,0.18-1.34,0.37-1.97
		c0.48-1.54,1.01-3.06,1.55-4.58c0.44-1.25,0.91-2.5,1.41-3.73c0.37-0.9,0.82-1.78,1.22-2.67c0.54-1.18,1.05-2.37,1.6-3.53
		c0.39-0.83,0.84-1.64,1.26-2.46c0.4-0.8,0.81-1.58,1.54-2.15c0.51-0.4,1-0.83,1.5-1.25c0.86-0.72,1.72-1.45,2.59-2.16
		c0.13-0.1,0.4-0.21,0.48-0.15c0.45,0.34,0.93,0.19,1.41,0.19c0.95,0,1.57-1.22,1.18-2.01c-0.3-0.6-0.85-0.83-1.45-0.52
		c-0.38,0.19-0.71,0.49-1.02,0.77c-0.26,0.23-0.42,0.58-0.69,0.78C24.6,5.04,23.84,5.51,23.11,6c-0.5,0.33-0.98,0.69-1.55,1.08
		c0.27-1.07,0.75-1.98,0.39-3.04c-0.27,0.54-0.55,1.08-0.8,1.57c-0.12-0.7-0.2-1.4-0.39-2.07c-0.07-0.26-0.17-0.43,0.02-0.67
		c0.56-0.71,0.39-1.43-0.03-2.12c-0.36-0.59-0.98-0.86-1.59-0.72c-0.76,0.17-1.36,0.72-1.64,1.46c-0.41,1.09,0.55,2.49,1.75,2.5
		C19.83,4,19.9,4.28,19.92,4.63c0.03,0.6,0.03,1.21,0,1.82c-0.08,1.57-0.65,2.98-1.46,4.32c-0.32-0.35-0.63-0.66-0.9-1
		c-0.11-0.14-0.2-0.39-0.15-0.55c0.13-0.41-0.07-0.66-0.33-0.91c-0.11-0.11-0.21-0.26-0.28-0.4c-0.34-0.68-1.13-1.03-1.87-0.81
		c-1.28,0.37-1.67,1.8-0.81,2.96c0.59,0.79,1.64,0.96,2.76,0.43c0.84,0.74,0.99,1.36,0.5,2.26c-0.08,0.14-0.21,0.25-0.28,0.39
		c-0.62,1.28-1.23,2.56-1.84,3.84c-1.11,2.35-2.28,4.66-3.09,7.14c-0.62,1.9-1.46,3.72-1.72,5.73c-0.17,1.32-0.52,2.62-0.72,3.94
		c-0.18,1.18-0.25,2.37-0.37,3.56c-0.04,0.35-0.1,0.71-0.12,1.06c-0.06,1.01-0.09,2.01-0.15,3.02c-0.04,0.68-0.11,1.36-0.16,2.04
		c-0.06,0.74-0.16,1.48-0.17,2.22c-0.02,0.94,0.12,1.88,0.03,2.81c-0.09,0.96-0.06,1.89,0.01,2.85c0.13,1.76,0.18,3.52,0.27,5.28
		c-0.6-0.83-1.18-1.7-1.84-2.51c-1.02-1.26-2.09-2.47-3.13-3.7c-0.08-0.1-0.14-0.26-0.13-0.39c0.06-0.8-0.1-1.53-0.64-2.14
		c-0.36-0.42-0.79-0.82-1.38-0.64c-0.68,0.2-1.08,0.48-1.1,1.34c-0.01,0.31,0,0.62,0.05,0.93c0.16,0.94,0.76,1.64,2.02,1.42
		c0.16-0.03,0.39,0.07,0.52,0.19c0.16,0.15,0.24,0.4,0.38,0.58c0.88,1.17,1.77,2.34,2.66,3.52c-1.88-0.46-2.79-0.79-3.98-0.41
		c-0.68-0.8-1.35-1.03-1.95-0.69C0.01,54.41-0.27,55-0.12,55.5c0.26,0.92,1.12,1.51,1.75,1.51c0.63,0,1.22-0.66,1.33-1.53
		c1.18,0.23,2.34,0.49,3.51,0.67c0.54,0.09,0.8,0.39,1.01,0.85c0.38,0.84,0.79,1.66,1.19,2.5c0.58,1.21,1.31,2.34,1.52,3.73
		c0.21,1.35,0.58,2.68,0.98,3.99c0.45,1.44,1.01,2.85,1.52,4.27c0.39,1.09,0.79,2.19,1.17,3.29c0.07,0.19,0.08,0.39,0.11,0.59
		c-0.04,0.02-0.08,0.04-0.12,0.06c-0.54-0.74-1.13-1.46-1.62-2.24c-0.49-0.77-0.87-1.62-1.35-2.4c-0.21-0.34-0.28-0.91-1.05-0.84
		c0.26,0.93,0.5,1.81,0.76,2.75c-0.35-0.13-0.62-0.19-0.85-0.32C9.12,72.05,8.36,72,7.91,71.3c-0.25-0.38-0.74-0.65-1.25-0.47
		C6.19,71,5.73,71.24,5.3,71.49c-0.18,0.11-0.41,0.37-0.38,0.54c0.12,0.85,0.16,1.75,0.92,2.36c0.18,0.14,0.33,0.44,0.5,0.44
		c0.7,0.01,1.41-0.08,1.97-0.58c0.19-0.17,0.32-0.41,0.49-0.63c0.74,0.48,1.41,0.94,2.1,1.37c0.73,0.45,1.53,0.81,2.22,1.32
		c0.8,0.59,1.65,1.2,2.25,1.97c0.74,0.96,1.24,2.1,1.86,3.15c0.92,1.56,1.8,3.13,2.78,4.65c0.73,1.12,1.56,2.18,2.39,3.23
		c0.46,0.59,1.03,1.09,1.52,1.65c0.5,0.58,0.94,1.22,1.47,1.78c0.76,0.8,1.58,1.53,2.36,2.31c0.38,0.38,0.7,0.84,1.1,1.21
		c0.43,0.39,0.95,0.68,1.4,1.05c0.51,0.42,0.96,0.93,1.49,1.33c1.23,0.92,2.48,1.8,3.73,2.69c0.16,0.11,0.33,0.2,0.5,0.29
		c0.26,0.13,0.53,0.25,0.77,0.4c0.13,0.08,0.21,0.27,0.35,0.33c1.15,0.51,2.07,1.38,3.24,1.89c0.82,0.36,1.59,0.89,2.42,1.29
		c1.22,0.58,2.43,1.18,3.66,1.74c0.31,0.14,0.68,0.17,1.01,0.27c0.89,0.28,1.78,0.59,2.67,0.85c0.89,0.27,1.79,0.51,2.74,0.77
		c-0.07,0.06-0.14,0.1-0.19,0.15c0.26-0.17,0.56-0.36,0.75-0.44C53.66,108.75,53.93,108.67,54.22,108.59z"/>
</g>
</svg>
